<mxfile host="Electron" modified="2024-07-16T18:54:07.910Z" agent="Mozilla/5.0 (Windows NT 10.0; Win64; x64) AppleWebKit/537.36 (KHTML, like Gecko) draw.io/22.1.16 Chrome/120.0.6099.109 Electron/28.1.0 Safari/537.36" version="22.1.16" etag="b6mT8SaNAkmforeUf1Bd" type="device">
  <diagram name="Page-1" id="Page-1">
    <mxGraphModel dx="1569" dy="1343" grid="1" gridSize="10" guides="1" tooltips="1" connect="1" arrows="1" fold="1" page="1" pageScale="1" pageWidth="1200" pageHeight="700" math="0" shadow="0">
      <root>
        <mxCell id="0" />
        <mxCell id="1" parent="0" />
        <UserObject label="" tags="Background" id="2">
          <mxCell style="vsdxID=127;fillColor=#dae8fc;shape=stencil(nZBLDoAgDERP0z3SIyjew0SURgSD+Lu9kMZoXLhwN9O+tukAlrNpJg1SzDH4QW/URgNYgZTkjA4UkwJUgGXng+6DX1zLfmoymdXo17xh5zmRJ6Q42BWCfc2oJfdAr+Yv+AP9Cb7OJ3H/2JG1HNGz/84klThPVCc=);strokeColor=#6c8ebf;strokeWidth=2;points=[];labelBackgroundColor=none;rounded=0;html=1;whiteSpace=wrap;" parent="1" vertex="1">
            <mxGeometry x="357" y="131" width="268" height="422" as="geometry" />
          </mxCell>
        </UserObject>
        <UserObject label="&lt;div style=&quot;font-size: 1px&quot;&gt;&lt;p style=&quot;text-align:center;margin-left:0;margin-right:0;margin-top:0px;margin-bottom:0px;text-indent:0;vertical-align:middle;direction:ltr;&quot;&gt;&lt;font style=&quot;font-size:14.11px;font-family:Calibri;color:#000000;direction:ltr;letter-spacing:0px;line-height:120%;opacity:1&quot;&gt;Pré-processeur&lt;br/&gt;&lt;/font&gt;&lt;font style=&quot;font-size:14.11px;font-family:Themed;color:#000000;direction:ltr;letter-spacing:0px;line-height:120%;opacity:1&quot;&gt;&lt;i&gt;(preprocessing)&lt;/i&gt;&lt;/font&gt;&lt;font style=&quot;font-size:14.11px;font-family:Themed;color:#000000;direction:ltr;letter-spacing:0px;line-height:120%;opacity:1&quot;&gt;&lt;br/&gt;&lt;/font&gt;&lt;/p&gt;&lt;/div&gt;" tags="Background" id="3">
          <mxCell style="verticalAlign=middle;align=center;overflow=width;vsdxID=1;fillColor=#ffffff;gradientColor=none;shape=stencil(nZBLDoAgDERP0z3SIyjew0SURgSD+Lu9kMZoXLhwN9O+tukAlrNpJg1SzDH4QW/URgNYgZTkjA4UkwJUgGXng+6DX1zLfmoymdXo17xh5zmRJ6Q42BWCfc2oJfdAr+Yv+AP9Cb7OJ3H/2JG1HNGz/84klThPVCc=);strokeColor=#000000;points=[[0.5,1,0],[1,0.5,0],[0.5,0,0],[0,0.5,0],[0.5,0.5,0]];labelBackgroundColor=none;rounded=0;html=1;whiteSpace=wrap;" parent="1" vertex="1">
            <mxGeometry x="409" y="149" width="160" height="40" as="geometry" />
          </mxCell>
        </UserObject>
        <UserObject label="&lt;div style=&quot;font-size: 1px&quot;&gt;&lt;p style=&quot;text-align:center;margin-left:0;margin-right:0;margin-top:0px;margin-bottom:0px;text-indent:0;vertical-align:middle;direction:ltr;&quot;&gt;&lt;font style=&quot;font-size:14.11px;font-family:Calibri;color:#000000;direction:ltr;letter-spacing:0px;line-height:120%;opacity:1&quot;&gt;Compilateur&lt;br/&gt;(&lt;/font&gt;&lt;font style=&quot;font-size:14.11px;font-family:Themed;color:#000000;direction:ltr;letter-spacing:0px;line-height:120%;opacity:1&quot;&gt;&lt;i&gt;build&lt;/i&gt;&lt;/font&gt;&lt;font style=&quot;font-size:14.11px;font-family:Themed;color:#000000;direction:ltr;letter-spacing:0px;line-height:120%;opacity:1&quot;&gt;)&lt;br/&gt;&lt;/font&gt;&lt;/p&gt;&lt;/div&gt;" tags="Background" id="4">
          <mxCell style="verticalAlign=middle;align=center;overflow=width;vsdxID=5;fillColor=#ffffff;gradientColor=none;shape=stencil(nZBLDoAgDERP0z3SIyjew0SURgSD+Lu9kMZoXLhwN9O+tukAlrNpJg1SzDH4QW/URgNYgZTkjA4UkwJUgGXng+6DX1zLfmoymdXo17xh5zmRJ6Q42BWCfc2oJfdAr+Yv+AP9Cb7OJ3H/2JG1HNGz/84klThPVCc=);strokeColor=#000000;points=[[0.5,1,0],[1,0.5,0],[0.5,0,0],[0,0.5,0],[0.5,0.5,0]];labelBackgroundColor=none;rounded=0;html=1;whiteSpace=wrap;" parent="1" vertex="1">
            <mxGeometry x="409" y="262" width="160" height="40" as="geometry" />
          </mxCell>
        </UserObject>
        <UserObject label="&lt;div style=&quot;font-size: 1px&quot;&gt;&lt;p style=&quot;text-align:center;margin-left:0;margin-right:0;margin-top:0px;margin-bottom:0px;text-indent:0;vertical-align:middle;direction:ltr;&quot;&gt;&lt;font style=&quot;font-size:14.11px;font-family:Calibri;color:#000000;direction:ltr;letter-spacing:0px;line-height:120%;opacity:1&quot;&gt;Assembleur&lt;br/&gt;&lt;/font&gt;&lt;font style=&quot;font-size:14.11px;font-family:Themed;color:#000000;direction:ltr;letter-spacing:0px;line-height:120%;opacity:1&quot;&gt;&lt;i&gt;(assembly)&lt;/i&gt;&lt;/font&gt;&lt;font style=&quot;font-size:14.11px;font-family:Themed;color:#000000;direction:ltr;letter-spacing:0px;line-height:120%;opacity:1&quot;&gt;&lt;br/&gt;&lt;/font&gt;&lt;/p&gt;&lt;/div&gt;" tags="Background" id="5">
          <mxCell style="verticalAlign=middle;align=center;overflow=width;vsdxID=6;fillColor=#ffffff;gradientColor=none;shape=stencil(nZBLDoAgDERP0z3SIyjew0SURgSD+Lu9kMZoXLhwN9O+tukAlrNpJg1SzDH4QW/URgNYgZTkjA4UkwJUgGXng+6DX1zLfmoymdXo17xh5zmRJ6Q42BWCfc2oJfdAr+Yv+AP9Cb7OJ3H/2JG1HNGz/84klThPVCc=);strokeColor=#000000;points=[[0.5,1,0],[1,0.5,0],[0.5,0,0],[0,0.5,0],[0.5,0.5,0]];labelBackgroundColor=none;rounded=0;html=1;whiteSpace=wrap;" parent="1" vertex="1">
            <mxGeometry x="409" y="385" width="160" height="40" as="geometry" />
          </mxCell>
        </UserObject>
        <UserObject label="&lt;div style=&quot;font-size: 1px&quot;&gt;&lt;p style=&quot;text-align:center;margin-left:0;margin-right:0;margin-top:0px;margin-bottom:0px;text-indent:0;vertical-align:middle;direction:ltr;&quot;&gt;&lt;font style=&quot;font-size:14.11px;font-family:Calibri;color:#000000;direction:ltr;letter-spacing:0px;line-height:120%;opacity:1&quot;&gt;Édition des liens&lt;br/&gt;&lt;/font&gt;&lt;font style=&quot;font-size:14.11px;font-family:Themed;color:#000000;direction:ltr;letter-spacing:0px;line-height:120%;opacity:1&quot;&gt;&lt;i&gt;(link)&lt;/i&gt;&lt;/font&gt;&lt;font style=&quot;font-size:14.11px;font-family:Themed;color:#000000;direction:ltr;letter-spacing:0px;line-height:120%;opacity:1&quot;&gt;&lt;br/&gt;&lt;/font&gt;&lt;/p&gt;&lt;/div&gt;" tags="Background" id="6">
          <mxCell style="verticalAlign=middle;align=center;overflow=width;vsdxID=7;fillColor=#ffffff;gradientColor=none;shape=stencil(nZBLDoAgDERP0z3SIyjew0SURgSD+Lu9kMZoXLhwN9O+tukAlrNpJg1SzDH4QW/URgNYgZTkjA4UkwJUgGXng+6DX1zLfmoymdXo17xh5zmRJ6Q42BWCfc2oJfdAr+Yv+AP9Cb7OJ3H/2JG1HNGz/84klThPVCc=);strokeColor=#000000;points=[[0.5,1,0],[1,0.5,0],[0.5,0,0],[0,0.5,0],[0.5,0.5,0]];labelBackgroundColor=none;rounded=0;html=1;whiteSpace=wrap;" parent="1" vertex="1">
            <mxGeometry x="409" y="505" width="160" height="40" as="geometry" />
          </mxCell>
        </UserObject>
        <UserObject label="" tags="Background" id="7">
          <mxCell style="vsdxID=20;fillColor=none;gradientColor=none;strokeColor=none;points=[];labelBackgroundColor=none;rounded=0;html=1;whiteSpace=wrap;" parent="1" vertex="1">
            <mxGeometry x="450" y="28" width="78" height="97" as="geometry" />
          </mxCell>
        </UserObject>
        <mxCell id="8" style="vsdxID=21;fillColor=#FFFFFF;gradientColor=none;shape=stencil(pZHNDsIgEISfhitZFkzDudb3aFIqRISG4t/bCxJjW22i8Ta7fLMhM4TXo24HRRDGGPxBXUwXNeFbgmicVsHEpAhvCK97H9Q++JPryjy0mczq6M/5wrX4GED2INzKjIwyfGx2BbfGTfBKULGZGWAdnl8GCvxb9vmrj6iUVFb/4CgoinXDWyQ/4ssEk3il3xtrS3nT92VbaVWa5s0d);strokeColor=none;strokeWidth=0;spacingTop=-3;spacingBottom=-3;spacingLeft=-3;spacingRight=-3;points=[];labelBackgroundColor=none;rounded=0;html=1;whiteSpace=wrap;" parent="7" vertex="1">
          <mxGeometry x="5" y="8" width="68" height="80" as="geometry" />
        </mxCell>
        <mxCell id="9" style="vsdxID=22;fillColor=#FFFFFF;gradientColor=#ffffff;shape=stencil(nZHdCsIwDIWfJrcjSxQfYM73GKyzwdqOrv69va1BHIKKuzvJ+U4gCXAz2W40QDilGA7mIn2ywFsgEm9NlJQVcAvcDCGafQwn32s9doUs6hjOZcJVc5tVtaaSIrxpBx/VTmEnfgbjMrDGL+jTXARTXSF/xv9a7gecxeuGgzinL5j77zfPLf0Xt3c=);strokeColor=none;strokeWidth=0;spacingTop=-3;spacingBottom=-3;spacingLeft=-3;spacingRight=-3;points=[];labelBackgroundColor=none;rounded=0;html=1;whiteSpace=wrap;" parent="7" vertex="1">
          <mxGeometry x="5" y="8" width="67" height="80" as="geometry" />
        </mxCell>
        <mxCell id="10" style="vsdxID=23;fillColor=#a6a6a6;gradientColor=none;shape=stencil(nZHdDsIgDIWfprek0jjles73WDImRISF4d/bCzbG+Z94d1q+NodToHo07aBB4phi2Oqj7ZIBWoGU1hsdbcoKqAGq+xD1Joa977ge2kIWtQuHsuHEczPEMiPxzLWqxHJ+7awZd9ZP8ErIxQOPn1n8D7w5eou+2FVCfbH783dZ3JPprXMc7PT9Ocnc4itQcwE=);strokeColor=none;strokeWidth=0;spacingTop=-3;spacingBottom=-3;spacingLeft=-3;spacingRight=-3;points=[];labelBackgroundColor=none;rounded=0;html=1;whiteSpace=wrap;" parent="7" vertex="1">
          <mxGeometry x="54" y="8" width="18" height="17" as="geometry" />
        </mxCell>
        <mxCell id="11" style="vsdxID=24;fillColor=#FFFFFF;gradientColor=none;shape=stencil(UzV2Ls5ILEhVNTIoLinKz04tz0wpyVA1dlE1MsrMy0gtyiwBslSNXVWNndPyi1LTi/JL81Ig/IJEkEoQKze/DGRCBUSfAUiHkUElhGdoAOG7QZTmZOYhKYVJwhRbWupZmuBWjqoYj7l4nQBkIJyelpmTA/E5sjy6V4FCkGAydgUA);strokeColor=none;strokeWidth=0;spacingTop=-3;spacingBottom=-3;spacingLeft=-3;spacingRight=-3;points=[];labelBackgroundColor=none;rounded=0;html=1;whiteSpace=wrap;" parent="7" vertex="1">
          <mxGeometry x="55" y="9" width="16" height="15" as="geometry" />
        </mxCell>
        <mxCell id="12" style="vsdxID=25;fillColor=none;gradientColor=none;shape=stencil(pZHNDsIgEISfhitZFkzDudb3aFIqRISG4t/bCxJjW22i8Ta7fLMhM4TXo24HRRDGGPxBXUwXNeFbgmicVsHEpAhvCK97H9Q++JPryjy0mczq6M/5wrX4GED2INzKjIwyfGx2BbfGTfBKULGZGWAdnl8GCvxb9vmrj6iUVFb/4CgoinXDWyQ/4ssEk3il3xtrS3nT92VbaVWa5s0d);strokeColor=#000000;spacingTop=-3;spacingBottom=-3;spacingLeft=-3;spacingRight=-3;points=[];labelBackgroundColor=none;rounded=0;html=1;whiteSpace=wrap;" parent="7" vertex="1">
          <mxGeometry x="5" y="8" width="68" height="80" as="geometry" />
        </mxCell>
        <mxCell id="13" style="vsdxID=26;fillColor=#ffffff;gradientColor=#a4a4a4;shape=stencil(nZBLDoAgDERP0z3SIyjew0SURgSD+Lu9kMZoXLhwN9O+tukAlrNpJg1SzDH4QW/URgNYgZTkjA4UkwJUgGXng+6DX1zLfmoymdXo17xh5zmRJ6Q42BWCfc2oJfdAr+Yv+AP9Cb7OJ3H/2JG1HNGz/84klThPVCc=);strokeColor=none;strokeWidth=0;spacingTop=-3;spacingBottom=-3;spacingLeft=-3;spacingRight=-3;points=[];labelBackgroundColor=none;rounded=0;html=1;whiteSpace=wrap;" parent="7" vertex="1">
          <mxGeometry x="11" y="27" width="31" as="geometry" />
        </mxCell>
        <mxCell id="14" style="vsdxID=27;fillColor=#ffffff;gradientColor=#a4a4a4;shape=stencil(nZBLDoAgDERP0z3SIyjew0SURgSD+Lu9kMZoXLhwN9O+tukAlrNpJg1SzDH4QW/URgNYgZTkjA4UkwJUgGXng+6DX1zLfmoymdXo17xh5zmRJ6Q42BWCfc2oJfdAr+Yv+AP9Cb7OJ3H/2JG1HNGz/84klThPVCc=);strokeColor=none;strokeWidth=0;spacingTop=-3;spacingBottom=-3;spacingLeft=-3;spacingRight=-3;points=[];labelBackgroundColor=none;rounded=0;html=1;whiteSpace=wrap;" parent="7" vertex="1">
          <mxGeometry x="11" y="35" width="51" as="geometry" />
        </mxCell>
        <mxCell id="15" style="vsdxID=28;fillColor=#ffffff;gradientColor=#a4a4a4;shape=stencil(nZBLDoAgDERP0z3SIyjew0SURgSD+Lu9kMZoXLhwN9O+tukAlrNpJg1SzDH4QW/URgNYgZTkjA4UkwJUgGXng+6DX1zLfmoymdXo17xh5zmRJ6Q42BWCfc2oJfdAr+Yv+AP9Cb7OJ3H/2JG1HNGz/84klThPVCc=);strokeColor=none;strokeWidth=0;spacingTop=-3;spacingBottom=-3;spacingLeft=-3;spacingRight=-3;points=[];labelBackgroundColor=none;rounded=0;html=1;whiteSpace=wrap;" parent="7" vertex="1">
          <mxGeometry x="11" y="43" width="51" as="geometry" />
        </mxCell>
        <mxCell id="16" style="vsdxID=29;fillColor=#ffffff;gradientColor=#a4a4a4;shape=stencil(nZBLDoAgDERP0z3SIyjew0SURgSD+Lu9kMZoXLhwN9O+tukAlrNpJg1SzDH4QW/URgNYgZTkjA4UkwJUgGXng+6DX1zLfmoymdXo17xh5zmRJ6Q42BWCfc2oJfdAr+Yv+AP9Cb7OJ3H/2JG1HNGz/84klThPVCc=);strokeColor=none;strokeWidth=0;spacingTop=-3;spacingBottom=-3;spacingLeft=-3;spacingRight=-3;points=[];labelBackgroundColor=none;rounded=0;html=1;whiteSpace=wrap;" parent="7" vertex="1">
          <mxGeometry x="11" y="51" width="51" as="geometry" />
        </mxCell>
        <mxCell id="17" style="vsdxID=30;fillColor=#ffffff;gradientColor=#a4a4a4;shape=stencil(nZBLDoAgDERP0z3SIyjew0SURgSD+Lu9kMZoXLhwN9O+tukAlrNpJg1SzDH4QW/URgNYgZTkjA4UkwJUgGXng+6DX1zLfmoymdXo17xh5zmRJ6Q42BWCfc2oJfdAr+Yv+AP9Cb7OJ3H/2JG1HNGz/84klThPVCc=);strokeColor=none;strokeWidth=0;spacingTop=-3;spacingBottom=-3;spacingLeft=-3;spacingRight=-3;points=[];labelBackgroundColor=none;rounded=0;html=1;whiteSpace=wrap;" parent="7" vertex="1">
          <mxGeometry x="11" y="59" width="51" as="geometry" />
        </mxCell>
        <mxCell id="18" style="vsdxID=31;fillColor=#ffffff;gradientColor=#a4a4a4;shape=stencil(nZBLDoAgDERP0z3SIyjew0SURgSD+Lu9kMZoXLhwN9O+tukAlrNpJg1SzDH4QW/URgNYgZTkjA4UkwJUgGXng+6DX1zLfmoymdXo17xh5zmRJ6Q42BWCfc2oJfdAr+Yv+AP9Cb7OJ3H/2JG1HNGz/84klThPVCc=);strokeColor=none;strokeWidth=0;spacingTop=-3;spacingBottom=-3;spacingLeft=-3;spacingRight=-3;points=[];labelBackgroundColor=none;rounded=0;html=1;whiteSpace=wrap;" parent="7" vertex="1">
          <mxGeometry x="11" y="67" width="51" as="geometry" />
        </mxCell>
        <mxCell id="19" style="vsdxID=32;fillColor=#ffffff;gradientColor=#a4a4a4;shape=stencil(nZBLDoAgDERP0z3SIyjew0SURgSD+Lu9kMZoXLhwN9O+tukAlrNpJg1SzDH4QW/URgNYgZTkjA4UkwJUgGXng+6DX1zLfmoymdXo17xh5zmRJ6Q42BWCfc2oJfdAr+Yv+AP9Cb7OJ3H/2JG1HNGz/84klThPVCc=);strokeColor=none;strokeWidth=0;spacingTop=-3;spacingBottom=-3;spacingLeft=-3;spacingRight=-3;points=[];labelBackgroundColor=none;rounded=0;html=1;whiteSpace=wrap;" parent="7" vertex="1">
          <mxGeometry x="11" y="75" width="51" as="geometry" />
        </mxCell>
        <mxCell id="20" value="&lt;div style=&quot;font-size: 1px&quot;&gt;&lt;font style=&quot;font-size:16.93px;font-family:Calibri;color:#000000;direction:ltr;letter-spacing:0px;line-height:120%;opacity:1&quot;&gt;Fichier source&lt;br/&gt;&lt;/font&gt;&lt;/div&gt;" style="text;vsdxID=20;fillColor=none;gradientColor=none;strokeColor=none;points=[];labelBackgroundColor=none;rounded=0;html=1;whiteSpace=wrap;verticalAlign=middle;align=center;overflow=width;;html=1;" parent="7" vertex="1">
          <mxGeometry x="-16.37" y="-21.61" width="110.83" height="31.61" as="geometry" />
        </mxCell>
        <UserObject label="&lt;div style=&quot;font-size: 1px&quot;&gt;&lt;font style=&quot;font-size:25.4px;font-family:Calibri;color:#000000;direction:ltr;letter-spacing:0px;line-height:120%;opacity:1&quot;&gt;&lt;b&gt;.c&lt;br/&gt;&lt;/b&gt;&lt;/font&gt;&lt;/div&gt;" tags="Background" id="21">
          <mxCell style="verticalAlign=middle;align=center;overflow=width;vsdxID=46;fillColor=none;gradientColor=none;shape=stencil(nZBLDoAgDERP0z3SIyjew0SURgSD+Lu9kMZoXLhwN9O+tukAlrNpJg1SzDH4QW/URgNYgZTkjA4UkwJUgGXng+6DX1zLfmoymdXo17xh5zmRJ6Q42BWCfc2oJfdAr+Yv+AP9Cb7OJ3H/2JG1HNGz/84klThPVCc=);strokeColor=none;strokeWidth=2;points=[];labelBackgroundColor=none;rounded=0;html=1;whiteSpace=wrap;" parent="1" vertex="1">
            <mxGeometry x="465" y="68" width="48" height="28" as="geometry" />
          </mxCell>
        </UserObject>
        <UserObject label="" tags="Background" id="22">
          <mxCell style="vsdxID=114;fillColor=none;gradientColor=none;dashed=1;dashPattern=2.00 2.00;strokeColor=none;strokeWidth=2;points=[];labelBackgroundColor=none;rounded=0;html=1;whiteSpace=wrap;" parent="1" vertex="1">
            <mxGeometry x="297" y="233" width="580" height="28" as="geometry" />
          </mxCell>
        </UserObject>
        <UserObject label="" tags="Background" id="161">
          <mxCell style="vsdxID=111;edgeStyle=none;dashed=1;dashPattern=2.00 2.00;startArrow=none;endArrow=none;startSize=5;endSize=5;strokeWidth=2;strokeColor=#000000;spacingTop=0;spacingBottom=0;spacingLeft=0;spacingRight=0;verticalAlign=middle;html=1;labelBackgroundColor=#ffffff;rounded=0;" parent="22" edge="1">
            <mxGeometry relative="1" as="geometry">
              <mxPoint as="offset" />
              <Array as="points" />
              <mxPoint as="sourcePoint" />
              <mxPoint x="292" as="targetPoint" />
            </mxGeometry>
          </mxCell>
        </UserObject>
        <UserObject label="" tags="Background" id="162">
          <mxCell style="vsdxID=112;edgeStyle=none;dashed=1;dashPattern=2.00 2.00;startArrow=none;endArrow=none;startSize=5;endSize=5;strokeWidth=2;strokeColor=#000000;spacingTop=0;spacingBottom=0;spacingLeft=0;spacingRight=0;verticalAlign=middle;html=1;labelBackgroundColor=#ffffff;rounded=0;" parent="22" edge="1">
            <mxGeometry relative="1" as="geometry">
              <Array as="points" />
              <mxPoint x="292" as="sourcePoint" />
              <mxPoint x="364" y="28" as="targetPoint" />
            </mxGeometry>
          </mxCell>
        </UserObject>
        <UserObject label="" tags="Background" id="163">
          <mxCell style="vsdxID=113;edgeStyle=none;dashed=1;dashPattern=2.00 2.00;startArrow=none;endArrow=none;startSize=5;endSize=5;strokeWidth=2;strokeColor=#000000;spacingTop=0;spacingBottom=0;spacingLeft=0;spacingRight=0;verticalAlign=middle;html=1;labelBackgroundColor=#ffffff;rounded=0;" parent="22" edge="1">
            <mxGeometry relative="1" as="geometry">
              <mxPoint as="offset" />
              <Array as="points" />
              <mxPoint x="364" y="28" as="sourcePoint" />
              <mxPoint x="580" y="28" as="targetPoint" />
            </mxGeometry>
          </mxCell>
        </UserObject>
        <UserObject label="" tags="Background" id="23">
          <mxCell style="vsdxID=115;fillColor=none;gradientColor=none;strokeColor=none;strokeWidth=2;points=[];labelBackgroundColor=none;rounded=0;html=1;whiteSpace=wrap;" parent="1" vertex="1">
            <mxGeometry x="686" y="284" width="78" height="97" as="geometry" />
          </mxCell>
        </UserObject>
        <mxCell id="24" style="vsdxID=66;fillColor=none;gradientColor=none;strokeColor=none;points=[];labelBackgroundColor=none;rounded=0;html=1;whiteSpace=wrap;" parent="23" vertex="1">
          <mxGeometry y="-12" width="78" height="97" as="geometry" />
        </mxCell>
        <mxCell id="25" style="vsdxID=67;fillColor=#FFFFFF;gradientColor=none;shape=stencil(pZHNDsIgEISfhitZFkzDudb3aFIqRISG4t/bCxJjW22i8Ta7fLMhM4TXo24HRRDGGPxBXUwXNeFbgmicVsHEpAhvCK97H9Q++JPryjy0mczq6M/5wrX4GED2INzKjIwyfGx2BbfGTfBKULGZGWAdnl8GCvxb9vmrj6iUVFb/4CgoinXDWyQ/4ssEk3il3xtrS3nT92VbaVWa5s0d);strokeColor=none;strokeWidth=0;spacingTop=-3;spacingBottom=-3;spacingLeft=-3;spacingRight=-3;points=[];labelBackgroundColor=none;rounded=0;html=1;whiteSpace=wrap;" parent="24" vertex="1">
          <mxGeometry x="5" y="8" width="68" height="80" as="geometry" />
        </mxCell>
        <mxCell id="26" style="vsdxID=68;fillColor=#FFFFFF;gradientColor=#ffffff;shape=stencil(nZHdCsIwDIWfJrcjSxQfYM73GKyzwdqOrv69va1BHIKKuzvJ+U4gCXAz2W40QDilGA7mIn2ywFsgEm9NlJQVcAvcDCGafQwn32s9doUs6hjOZcJVc5tVtaaSIrxpBx/VTmEnfgbjMrDGL+jTXARTXSF/xv9a7gecxeuGgzinL5j77zfPLf0Xt3c=);strokeColor=none;strokeWidth=0;spacingTop=-3;spacingBottom=-3;spacingLeft=-3;spacingRight=-3;points=[];labelBackgroundColor=none;rounded=0;html=1;whiteSpace=wrap;" parent="24" vertex="1">
          <mxGeometry x="5" y="8" width="67" height="80" as="geometry" />
        </mxCell>
        <mxCell id="27" style="vsdxID=69;fillColor=#a6a6a6;gradientColor=none;shape=stencil(nZHdDsIgDIWfprek0jjles73WDImRISF4d/bCzbG+Z94d1q+NodToHo07aBB4phi2Oqj7ZIBWoGU1hsdbcoKqAGq+xD1Joa977ge2kIWtQuHsuHEczPEMiPxzLWqxHJ+7awZd9ZP8ErIxQOPn1n8D7w5eou+2FVCfbH783dZ3JPprXMc7PT9Ocnc4itQcwE=);strokeColor=none;strokeWidth=0;spacingTop=-3;spacingBottom=-3;spacingLeft=-3;spacingRight=-3;points=[];labelBackgroundColor=none;rounded=0;html=1;whiteSpace=wrap;" parent="24" vertex="1">
          <mxGeometry x="54" y="8" width="18" height="17" as="geometry" />
        </mxCell>
        <mxCell id="28" style="vsdxID=70;fillColor=#FFFFFF;gradientColor=none;shape=stencil(UzV2Ls5ILEhVNTIoLinKz04tz0wpyVA1dlE1MsrMy0gtyiwBslSNXVWNndPyi1LTi/JL81Ig/IJEkEoQKze/DGRCBUSfAUiHkUElhGdoAOG7QZTmZOYhKYVJwhRbWupZmuBWjqoYj7l4nQBkIJyelpmTA/E5sjy6V4FCkGAydgUA);strokeColor=none;strokeWidth=0;spacingTop=-3;spacingBottom=-3;spacingLeft=-3;spacingRight=-3;points=[];labelBackgroundColor=none;rounded=0;html=1;whiteSpace=wrap;" parent="24" vertex="1">
          <mxGeometry x="55" y="9" width="16" height="15" as="geometry" />
        </mxCell>
        <mxCell id="29" style="vsdxID=71;fillColor=none;gradientColor=none;shape=stencil(pZHNDsIgEISfhitZFkzDudb3aFIqRISG4t/bCxJjW22i8Ta7fLMhM4TXo24HRRDGGPxBXUwXNeFbgmicVsHEpAhvCK97H9Q++JPryjy0mczq6M/5wrX4GED2INzKjIwyfGx2BbfGTfBKULGZGWAdnl8GCvxb9vmrj6iUVFb/4CgoinXDWyQ/4ssEk3il3xtrS3nT92VbaVWa5s0d);strokeColor=#000000;spacingTop=-3;spacingBottom=-3;spacingLeft=-3;spacingRight=-3;points=[];labelBackgroundColor=none;rounded=0;html=1;whiteSpace=wrap;" parent="24" vertex="1">
          <mxGeometry x="5" y="8" width="68" height="80" as="geometry" />
        </mxCell>
        <mxCell id="30" style="vsdxID=72;fillColor=#ffffff;gradientColor=#a4a4a4;shape=stencil(nZBLDoAgDERP0z3SIyjew0SURgSD+Lu9kMZoXLhwN9O+tukAlrNpJg1SzDH4QW/URgNYgZTkjA4UkwJUgGXng+6DX1zLfmoymdXo17xh5zmRJ6Q42BWCfc2oJfdAr+Yv+AP9Cb7OJ3H/2JG1HNGz/84klThPVCc=);strokeColor=none;strokeWidth=0;spacingTop=-3;spacingBottom=-3;spacingLeft=-3;spacingRight=-3;points=[];labelBackgroundColor=none;rounded=0;html=1;whiteSpace=wrap;" parent="24" vertex="1">
          <mxGeometry x="11" y="27" width="31" as="geometry" />
        </mxCell>
        <mxCell id="31" style="vsdxID=73;fillColor=#ffffff;gradientColor=#a4a4a4;shape=stencil(nZBLDoAgDERP0z3SIyjew0SURgSD+Lu9kMZoXLhwN9O+tukAlrNpJg1SzDH4QW/URgNYgZTkjA4UkwJUgGXng+6DX1zLfmoymdXo17xh5zmRJ6Q42BWCfc2oJfdAr+Yv+AP9Cb7OJ3H/2JG1HNGz/84klThPVCc=);strokeColor=none;strokeWidth=0;spacingTop=-3;spacingBottom=-3;spacingLeft=-3;spacingRight=-3;points=[];labelBackgroundColor=none;rounded=0;html=1;whiteSpace=wrap;" parent="24" vertex="1">
          <mxGeometry x="11" y="35" width="51" as="geometry" />
        </mxCell>
        <mxCell id="32" style="vsdxID=74;fillColor=#ffffff;gradientColor=#a4a4a4;shape=stencil(nZBLDoAgDERP0z3SIyjew0SURgSD+Lu9kMZoXLhwN9O+tukAlrNpJg1SzDH4QW/URgNYgZTkjA4UkwJUgGXng+6DX1zLfmoymdXo17xh5zmRJ6Q42BWCfc2oJfdAr+Yv+AP9Cb7OJ3H/2JG1HNGz/84klThPVCc=);strokeColor=none;strokeWidth=0;spacingTop=-3;spacingBottom=-3;spacingLeft=-3;spacingRight=-3;points=[];labelBackgroundColor=none;rounded=0;html=1;whiteSpace=wrap;" parent="24" vertex="1">
          <mxGeometry x="11" y="43" width="51" as="geometry" />
        </mxCell>
        <mxCell id="33" style="vsdxID=75;fillColor=#ffffff;gradientColor=#a4a4a4;shape=stencil(nZBLDoAgDERP0z3SIyjew0SURgSD+Lu9kMZoXLhwN9O+tukAlrNpJg1SzDH4QW/URgNYgZTkjA4UkwJUgGXng+6DX1zLfmoymdXo17xh5zmRJ6Q42BWCfc2oJfdAr+Yv+AP9Cb7OJ3H/2JG1HNGz/84klThPVCc=);strokeColor=none;strokeWidth=0;spacingTop=-3;spacingBottom=-3;spacingLeft=-3;spacingRight=-3;points=[];labelBackgroundColor=none;rounded=0;html=1;whiteSpace=wrap;" parent="24" vertex="1">
          <mxGeometry x="11" y="51" width="51" as="geometry" />
        </mxCell>
        <mxCell id="34" style="vsdxID=76;fillColor=#ffffff;gradientColor=#a4a4a4;shape=stencil(nZBLDoAgDERP0z3SIyjew0SURgSD+Lu9kMZoXLhwN9O+tukAlrNpJg1SzDH4QW/URgNYgZTkjA4UkwJUgGXng+6DX1zLfmoymdXo17xh5zmRJ6Q42BWCfc2oJfdAr+Yv+AP9Cb7OJ3H/2JG1HNGz/84klThPVCc=);strokeColor=none;strokeWidth=0;spacingTop=-3;spacingBottom=-3;spacingLeft=-3;spacingRight=-3;points=[];labelBackgroundColor=none;rounded=0;html=1;whiteSpace=wrap;" parent="24" vertex="1">
          <mxGeometry x="11" y="59" width="51" as="geometry" />
        </mxCell>
        <mxCell id="35" style="vsdxID=77;fillColor=#ffffff;gradientColor=#a4a4a4;shape=stencil(nZBLDoAgDERP0z3SIyjew0SURgSD+Lu9kMZoXLhwN9O+tukAlrNpJg1SzDH4QW/URgNYgZTkjA4UkwJUgGXng+6DX1zLfmoymdXo17xh5zmRJ6Q42BWCfc2oJfdAr+Yv+AP9Cb7OJ3H/2JG1HNGz/84klThPVCc=);strokeColor=none;strokeWidth=0;spacingTop=-3;spacingBottom=-3;spacingLeft=-3;spacingRight=-3;points=[];labelBackgroundColor=none;rounded=0;html=1;whiteSpace=wrap;" parent="24" vertex="1">
          <mxGeometry x="11" y="67" width="51" as="geometry" />
        </mxCell>
        <mxCell id="36" style="vsdxID=78;fillColor=#ffffff;gradientColor=#a4a4a4;shape=stencil(nZBLDoAgDERP0z3SIyjew0SURgSD+Lu9kMZoXLhwN9O+tukAlrNpJg1SzDH4QW/URgNYgZTkjA4UkwJUgGXng+6DX1zLfmoymdXo17xh5zmRJ6Q42BWCfc2oJfdAr+Yv+AP9Cb7OJ3H/2JG1HNGz/84klThPVCc=);strokeColor=none;strokeWidth=0;spacingTop=-3;spacingBottom=-3;spacingLeft=-3;spacingRight=-3;points=[];labelBackgroundColor=none;rounded=0;html=1;whiteSpace=wrap;" parent="24" vertex="1">
          <mxGeometry x="11" y="75" width="51" as="geometry" />
        </mxCell>
        <mxCell id="37" value="&lt;div style=&quot;font-size: 1px&quot;&gt;&lt;p style=&quot;text-align:left;margin-left:0;margin-right:0;margin-top:0px;margin-bottom:0px;text-indent:0;vertical-align:middle;direction:ltr;&quot;&gt;&lt;font style=&quot;font-size:16.93px;font-family:Calibri;color:#000000;direction:ltr;letter-spacing:0px;line-height:120%;opacity:1&quot;&gt;Fichier source &lt;br/&gt;assembleur&lt;br/&gt;&lt;/font&gt;&lt;/p&gt;&lt;/div&gt;" style="text;vsdxID=66;fillColor=none;gradientColor=none;strokeColor=none;points=[];labelBackgroundColor=none;rounded=0;html=1;whiteSpace=wrap;verticalAlign=middle;align=left;overflow=width;;html=1;" parent="24" vertex="1">
          <mxGeometry x="74.67" y="26.23" width="114.66" height="51.93" as="geometry" />
        </mxCell>
        <mxCell id="38" value="&lt;div style=&quot;font-size: 1px&quot;&gt;&lt;font style=&quot;font-size:25.4px;font-family:Calibri;color:#000000;direction:ltr;letter-spacing:0px;line-height:120%;opacity:1&quot;&gt;&lt;b&gt;.s&lt;br/&gt;&lt;/b&gt;&lt;/font&gt;&lt;/div&gt;" style="verticalAlign=middle;align=center;overflow=width;vsdxID=79;fillColor=none;gradientColor=none;shape=stencil(nZBLDoAgDERP0z3SIyjew0SURgSD+Lu9kMZoXLhwN9O+tukAlrNpJg1SzDH4QW/URgNYgZTkjA4UkwJUgGXng+6DX1zLfmoymdXo17xh5zmRJ6Q42BWCfc2oJfdAr+Yv+AP9Cb7OJ3H/2JG1HNGz/84klThPVCc=);strokeColor=none;strokeWidth=2;points=[];labelBackgroundColor=none;rounded=0;html=1;whiteSpace=wrap;" parent="23" vertex="1">
          <mxGeometry x="14" y="34" width="48" height="28" as="geometry" />
        </mxCell>
        <UserObject label="" tags="Background" id="39">
          <mxCell style="vsdxID=116;fillColor=none;gradientColor=none;strokeColor=none;strokeWidth=2;points=[];labelBackgroundColor=none;rounded=0;html=1;whiteSpace=wrap;" parent="1" vertex="1">
            <mxGeometry x="686" y="385" width="78" height="97" as="geometry" />
          </mxCell>
        </UserObject>
        <mxCell id="40" style="vsdxID=81;fillColor=none;gradientColor=none;strokeColor=none;points=[];labelBackgroundColor=none;rounded=0;html=1;whiteSpace=wrap;" parent="39" vertex="1">
          <mxGeometry width="78" height="97" as="geometry" />
        </mxCell>
        <mxCell id="41" style="vsdxID=82;fillColor=#FFFFFF;gradientColor=none;shape=stencil(pZHNDsIgEISfhitZFkzDudb3aFIqRISG4t/bCxJjW22i8Ta7fLMhM4TXo24HRRDGGPxBXUwXNeFbgmicVsHEpAhvCK97H9Q++JPryjy0mczq6M/5wrX4GED2INzKjIwyfGx2BbfGTfBKULGZGWAdnl8GCvxb9vmrj6iUVFb/4CgoinXDWyQ/4ssEk3il3xtrS3nT92VbaVWa5s0d);strokeColor=none;strokeWidth=0;spacingTop=-3;spacingBottom=-3;spacingLeft=-3;spacingRight=-3;points=[];labelBackgroundColor=none;rounded=0;html=1;whiteSpace=wrap;" parent="40" vertex="1">
          <mxGeometry x="5" y="8" width="68" height="80" as="geometry" />
        </mxCell>
        <mxCell id="42" style="vsdxID=83;fillColor=#FFFFFF;gradientColor=#ffffff;shape=stencil(nZHdCsIwDIWfJrcjSxQfYM73GKyzwdqOrv69va1BHIKKuzvJ+U4gCXAz2W40QDilGA7mIn2ywFsgEm9NlJQVcAvcDCGafQwn32s9doUs6hjOZcJVc5tVtaaSIrxpBx/VTmEnfgbjMrDGL+jTXARTXSF/xv9a7gecxeuGgzinL5j77zfPLf0Xt3c=);strokeColor=none;strokeWidth=0;spacingTop=-3;spacingBottom=-3;spacingLeft=-3;spacingRight=-3;points=[];labelBackgroundColor=none;rounded=0;html=1;whiteSpace=wrap;" parent="40" vertex="1">
          <mxGeometry x="5" y="8" width="67" height="80" as="geometry" />
        </mxCell>
        <mxCell id="43" style="vsdxID=84;fillColor=#a6a6a6;gradientColor=none;shape=stencil(nZHdDsIgDIWfprek0jjles73WDImRISF4d/bCzbG+Z94d1q+NodToHo07aBB4phi2Oqj7ZIBWoGU1hsdbcoKqAGq+xD1Joa977ge2kIWtQuHsuHEczPEMiPxzLWqxHJ+7awZd9ZP8ErIxQOPn1n8D7w5eou+2FVCfbH783dZ3JPprXMc7PT9Ocnc4itQcwE=);strokeColor=none;strokeWidth=0;spacingTop=-3;spacingBottom=-3;spacingLeft=-3;spacingRight=-3;points=[];labelBackgroundColor=none;rounded=0;html=1;whiteSpace=wrap;" parent="40" vertex="1">
          <mxGeometry x="54" y="8" width="18" height="17" as="geometry" />
        </mxCell>
        <mxCell id="44" style="vsdxID=85;fillColor=#FFFFFF;gradientColor=none;shape=stencil(UzV2Ls5ILEhVNTIoLinKz04tz0wpyVA1dlE1MsrMy0gtyiwBslSNXVWNndPyi1LTi/JL81Ig/IJEkEoQKze/DGRCBUSfAUiHkUElhGdoAOG7QZTmZOYhKYVJwhRbWupZmuBWjqoYj7l4nQBkIJyelpmTA/E5sjy6V4FCkGAydgUA);strokeColor=none;strokeWidth=0;spacingTop=-3;spacingBottom=-3;spacingLeft=-3;spacingRight=-3;points=[];labelBackgroundColor=none;rounded=0;html=1;whiteSpace=wrap;" parent="40" vertex="1">
          <mxGeometry x="55" y="9" width="16" height="15" as="geometry" />
        </mxCell>
        <mxCell id="45" style="vsdxID=86;fillColor=none;gradientColor=none;shape=stencil(pZHNDsIgEISfhitZFkzDudb3aFIqRISG4t/bCxJjW22i8Ta7fLMhM4TXo24HRRDGGPxBXUwXNeFbgmicVsHEpAhvCK97H9Q++JPryjy0mczq6M/5wrX4GED2INzKjIwyfGx2BbfGTfBKULGZGWAdnl8GCvxb9vmrj6iUVFb/4CgoinXDWyQ/4ssEk3il3xtrS3nT92VbaVWa5s0d);strokeColor=#000000;spacingTop=-3;spacingBottom=-3;spacingLeft=-3;spacingRight=-3;points=[];labelBackgroundColor=none;rounded=0;html=1;whiteSpace=wrap;" parent="40" vertex="1">
          <mxGeometry x="5" y="8" width="68" height="80" as="geometry" />
        </mxCell>
        <mxCell id="46" style="vsdxID=87;fillColor=#ffffff;gradientColor=#a4a4a4;shape=stencil(nZBLDoAgDERP0z3SIyjew0SURgSD+Lu9kMZoXLhwN9O+tukAlrNpJg1SzDH4QW/URgNYgZTkjA4UkwJUgGXng+6DX1zLfmoymdXo17xh5zmRJ6Q42BWCfc2oJfdAr+Yv+AP9Cb7OJ3H/2JG1HNGz/84klThPVCc=);strokeColor=none;strokeWidth=0;spacingTop=-3;spacingBottom=-3;spacingLeft=-3;spacingRight=-3;points=[];labelBackgroundColor=none;rounded=0;html=1;whiteSpace=wrap;" parent="40" vertex="1">
          <mxGeometry x="11" y="27" width="31" as="geometry" />
        </mxCell>
        <mxCell id="47" style="vsdxID=88;fillColor=#ffffff;gradientColor=#a4a4a4;shape=stencil(nZBLDoAgDERP0z3SIyjew0SURgSD+Lu9kMZoXLhwN9O+tukAlrNpJg1SzDH4QW/URgNYgZTkjA4UkwJUgGXng+6DX1zLfmoymdXo17xh5zmRJ6Q42BWCfc2oJfdAr+Yv+AP9Cb7OJ3H/2JG1HNGz/84klThPVCc=);strokeColor=none;strokeWidth=0;spacingTop=-3;spacingBottom=-3;spacingLeft=-3;spacingRight=-3;points=[];labelBackgroundColor=none;rounded=0;html=1;whiteSpace=wrap;" parent="40" vertex="1">
          <mxGeometry x="11" y="35" width="51" as="geometry" />
        </mxCell>
        <mxCell id="48" style="vsdxID=89;fillColor=#ffffff;gradientColor=#a4a4a4;shape=stencil(nZBLDoAgDERP0z3SIyjew0SURgSD+Lu9kMZoXLhwN9O+tukAlrNpJg1SzDH4QW/URgNYgZTkjA4UkwJUgGXng+6DX1zLfmoymdXo17xh5zmRJ6Q42BWCfc2oJfdAr+Yv+AP9Cb7OJ3H/2JG1HNGz/84klThPVCc=);strokeColor=none;strokeWidth=0;spacingTop=-3;spacingBottom=-3;spacingLeft=-3;spacingRight=-3;points=[];labelBackgroundColor=none;rounded=0;html=1;whiteSpace=wrap;" parent="40" vertex="1">
          <mxGeometry x="11" y="43" width="51" as="geometry" />
        </mxCell>
        <mxCell id="49" style="vsdxID=90;fillColor=#ffffff;gradientColor=#a4a4a4;shape=stencil(nZBLDoAgDERP0z3SIyjew0SURgSD+Lu9kMZoXLhwN9O+tukAlrNpJg1SzDH4QW/URgNYgZTkjA4UkwJUgGXng+6DX1zLfmoymdXo17xh5zmRJ6Q42BWCfc2oJfdAr+Yv+AP9Cb7OJ3H/2JG1HNGz/84klThPVCc=);strokeColor=none;strokeWidth=0;spacingTop=-3;spacingBottom=-3;spacingLeft=-3;spacingRight=-3;points=[];labelBackgroundColor=none;rounded=0;html=1;whiteSpace=wrap;" parent="40" vertex="1">
          <mxGeometry x="11" y="51" width="51" as="geometry" />
        </mxCell>
        <mxCell id="50" style="vsdxID=91;fillColor=#ffffff;gradientColor=#a4a4a4;shape=stencil(nZBLDoAgDERP0z3SIyjew0SURgSD+Lu9kMZoXLhwN9O+tukAlrNpJg1SzDH4QW/URgNYgZTkjA4UkwJUgGXng+6DX1zLfmoymdXo17xh5zmRJ6Q42BWCfc2oJfdAr+Yv+AP9Cb7OJ3H/2JG1HNGz/84klThPVCc=);strokeColor=none;strokeWidth=0;spacingTop=-3;spacingBottom=-3;spacingLeft=-3;spacingRight=-3;points=[];labelBackgroundColor=none;rounded=0;html=1;whiteSpace=wrap;" parent="40" vertex="1">
          <mxGeometry x="11" y="59" width="51" as="geometry" />
        </mxCell>
        <mxCell id="51" style="vsdxID=92;fillColor=#ffffff;gradientColor=#a4a4a4;shape=stencil(nZBLDoAgDERP0z3SIyjew0SURgSD+Lu9kMZoXLhwN9O+tukAlrNpJg1SzDH4QW/URgNYgZTkjA4UkwJUgGXng+6DX1zLfmoymdXo17xh5zmRJ6Q42BWCfc2oJfdAr+Yv+AP9Cb7OJ3H/2JG1HNGz/84klThPVCc=);strokeColor=none;strokeWidth=0;spacingTop=-3;spacingBottom=-3;spacingLeft=-3;spacingRight=-3;points=[];labelBackgroundColor=none;rounded=0;html=1;whiteSpace=wrap;" parent="40" vertex="1">
          <mxGeometry x="11" y="67" width="51" as="geometry" />
        </mxCell>
        <mxCell id="52" style="vsdxID=93;fillColor=#ffffff;gradientColor=#a4a4a4;shape=stencil(nZBLDoAgDERP0z3SIyjew0SURgSD+Lu9kMZoXLhwN9O+tukAlrNpJg1SzDH4QW/URgNYgZTkjA4UkwJUgGXng+6DX1zLfmoymdXo17xh5zmRJ6Q42BWCfc2oJfdAr+Yv+AP9Cb7OJ3H/2JG1HNGz/84klThPVCc=);strokeColor=none;strokeWidth=0;spacingTop=-3;spacingBottom=-3;spacingLeft=-3;spacingRight=-3;points=[];labelBackgroundColor=none;rounded=0;html=1;whiteSpace=wrap;" parent="40" vertex="1">
          <mxGeometry x="11" y="75" width="51" as="geometry" />
        </mxCell>
        <mxCell id="53" value="&lt;div style=&quot;font-size: 1px&quot;&gt;&lt;p style=&quot;text-align:left;margin-left:0;margin-right:0;margin-top:0px;margin-bottom:0px;text-indent:0;vertical-align:middle;direction:ltr;&quot;&gt;&lt;font style=&quot;font-size:16.93px;font-family:Calibri;color:#000000;direction:ltr;letter-spacing:0px;line-height:120%;opacity:1&quot;&gt;Fichier objet assemblé&lt;br/&gt;&lt;/font&gt;&lt;/p&gt;&lt;/div&gt;" style="text;vsdxID=81;fillColor=none;gradientColor=none;strokeColor=none;points=[];labelBackgroundColor=none;rounded=0;html=1;whiteSpace=wrap;verticalAlign=middle;align=left;overflow=width;;html=1;" parent="40" vertex="1">
          <mxGeometry x="78.43" y="36.39" width="169.21" height="31.61" as="geometry" />
        </mxCell>
        <mxCell id="54" value="&lt;div style=&quot;font-size: 1px&quot;&gt;&lt;font style=&quot;font-size:25.4px;font-family:Calibri;color:#000000;direction:ltr;letter-spacing:0px;line-height:120%;opacity:1&quot;&gt;&lt;b&gt;.o&lt;br/&gt;&lt;/b&gt;&lt;/font&gt;&lt;/div&gt;" style="verticalAlign=middle;align=center;overflow=width;vsdxID=94;fillColor=none;gradientColor=none;shape=stencil(nZBLDoAgDERP0z3SIyjew0SURgSD+Lu9kMZoXLhwN9O+tukAlrNpJg1SzDH4QW/URgNYgZTkjA4UkwJUgGXng+6DX1zLfmoymdXo17xh5zmRJ6Q42BWCfc2oJfdAr+Yv+AP9Cb7OJ3H/2JG1HNGz/84klThPVCc=);strokeColor=none;strokeWidth=2;points=[];labelBackgroundColor=none;rounded=0;html=1;whiteSpace=wrap;" parent="39" vertex="1">
          <mxGeometry x="14" y="34" width="48" height="28" as="geometry" />
        </mxCell>
        <UserObject label="" tags="Background" id="55">
          <mxCell style="vsdxID=117;fillColor=none;gradientColor=none;strokeColor=none;strokeWidth=2;points=[];labelBackgroundColor=none;rounded=0;html=1;whiteSpace=wrap;" parent="1" vertex="1">
            <mxGeometry x="685" y="160" width="78" height="97" as="geometry" />
          </mxCell>
        </UserObject>
        <mxCell id="56" style="vsdxID=47;fillColor=none;gradientColor=none;strokeColor=none;points=[];labelBackgroundColor=none;rounded=0;html=1;whiteSpace=wrap;" parent="55" vertex="1">
          <mxGeometry width="78" height="97" as="geometry" />
        </mxCell>
        <mxCell id="57" style="vsdxID=48;fillColor=#FFFFFF;gradientColor=none;shape=stencil(pZHNDsIgEISfhitZFkzDudb3aFIqRISG4t/bCxJjW22i8Ta7fLMhM4TXo24HRRDGGPxBXUwXNeFbgmicVsHEpAhvCK97H9Q++JPryjy0mczq6M/5wrX4GED2INzKjIwyfGx2BbfGTfBKULGZGWAdnl8GCvxb9vmrj6iUVFb/4CgoinXDWyQ/4ssEk3il3xtrS3nT92VbaVWa5s0d);strokeColor=none;strokeWidth=0;spacingTop=-3;spacingBottom=-3;spacingLeft=-3;spacingRight=-3;points=[];labelBackgroundColor=none;rounded=0;html=1;whiteSpace=wrap;" parent="56" vertex="1">
          <mxGeometry x="5" y="8" width="68" height="80" as="geometry" />
        </mxCell>
        <mxCell id="58" style="vsdxID=49;fillColor=#FFFFFF;gradientColor=#ffffff;shape=stencil(nZHdCsIwDIWfJrcjSxQfYM73GKyzwdqOrv69va1BHIKKuzvJ+U4gCXAz2W40QDilGA7mIn2ywFsgEm9NlJQVcAvcDCGafQwn32s9doUs6hjOZcJVc5tVtaaSIrxpBx/VTmEnfgbjMrDGL+jTXARTXSF/xv9a7gecxeuGgzinL5j77zfPLf0Xt3c=);strokeColor=none;strokeWidth=0;spacingTop=-3;spacingBottom=-3;spacingLeft=-3;spacingRight=-3;points=[];labelBackgroundColor=none;rounded=0;html=1;whiteSpace=wrap;" parent="56" vertex="1">
          <mxGeometry x="5" y="8" width="67" height="80" as="geometry" />
        </mxCell>
        <mxCell id="59" style="vsdxID=50;fillColor=#a6a6a6;gradientColor=none;shape=stencil(nZHdDsIgDIWfprek0jjles73WDImRISF4d/bCzbG+Z94d1q+NodToHo07aBB4phi2Oqj7ZIBWoGU1hsdbcoKqAGq+xD1Joa977ge2kIWtQuHsuHEczPEMiPxzLWqxHJ+7awZd9ZP8ErIxQOPn1n8D7w5eou+2FVCfbH783dZ3JPprXMc7PT9Ocnc4itQcwE=);strokeColor=none;strokeWidth=0;spacingTop=-3;spacingBottom=-3;spacingLeft=-3;spacingRight=-3;points=[];labelBackgroundColor=none;rounded=0;html=1;whiteSpace=wrap;" parent="56" vertex="1">
          <mxGeometry x="54" y="8" width="18" height="17" as="geometry" />
        </mxCell>
        <mxCell id="60" style="vsdxID=51;fillColor=#FFFFFF;gradientColor=none;shape=stencil(UzV2Ls5ILEhVNTIoLinKz04tz0wpyVA1dlE1MsrMy0gtyiwBslSNXVWNndPyi1LTi/JL81Ig/IJEkEoQKze/DGRCBUSfAUiHkUElhGdoAOG7QZTmZOYhKYVJwhRbWupZmuBWjqoYj7l4nQBkIJyelpmTA/E5sjy6V4FCkGAydgUA);strokeColor=none;strokeWidth=0;spacingTop=-3;spacingBottom=-3;spacingLeft=-3;spacingRight=-3;points=[];labelBackgroundColor=none;rounded=0;html=1;whiteSpace=wrap;" parent="56" vertex="1">
          <mxGeometry x="55" y="9" width="16" height="15" as="geometry" />
        </mxCell>
        <mxCell id="61" style="vsdxID=52;fillColor=none;gradientColor=none;shape=stencil(pZHNDsIgEISfhitZFkzDudb3aFIqRISG4t/bCxJjW22i8Ta7fLMhM4TXo24HRRDGGPxBXUwXNeFbgmicVsHEpAhvCK97H9Q++JPryjy0mczq6M/5wrX4GED2INzKjIwyfGx2BbfGTfBKULGZGWAdnl8GCvxb9vmrj6iUVFb/4CgoinXDWyQ/4ssEk3il3xtrS3nT92VbaVWa5s0d);strokeColor=#000000;spacingTop=-3;spacingBottom=-3;spacingLeft=-3;spacingRight=-3;points=[];labelBackgroundColor=none;rounded=0;html=1;whiteSpace=wrap;" parent="56" vertex="1">
          <mxGeometry x="5" y="8" width="68" height="80" as="geometry" />
        </mxCell>
        <mxCell id="62" style="vsdxID=53;fillColor=#ffffff;gradientColor=#a4a4a4;shape=stencil(nZBLDoAgDERP0z3SIyjew0SURgSD+Lu9kMZoXLhwN9O+tukAlrNpJg1SzDH4QW/URgNYgZTkjA4UkwJUgGXng+6DX1zLfmoymdXo17xh5zmRJ6Q42BWCfc2oJfdAr+Yv+AP9Cb7OJ3H/2JG1HNGz/84klThPVCc=);strokeColor=none;strokeWidth=0;spacingTop=-3;spacingBottom=-3;spacingLeft=-3;spacingRight=-3;points=[];labelBackgroundColor=none;rounded=0;html=1;whiteSpace=wrap;" parent="56" vertex="1">
          <mxGeometry x="11" y="27" width="31" as="geometry" />
        </mxCell>
        <mxCell id="63" style="vsdxID=54;fillColor=#ffffff;gradientColor=#a4a4a4;shape=stencil(nZBLDoAgDERP0z3SIyjew0SURgSD+Lu9kMZoXLhwN9O+tukAlrNpJg1SzDH4QW/URgNYgZTkjA4UkwJUgGXng+6DX1zLfmoymdXo17xh5zmRJ6Q42BWCfc2oJfdAr+Yv+AP9Cb7OJ3H/2JG1HNGz/84klThPVCc=);strokeColor=none;strokeWidth=0;spacingTop=-3;spacingBottom=-3;spacingLeft=-3;spacingRight=-3;points=[];labelBackgroundColor=none;rounded=0;html=1;whiteSpace=wrap;" parent="56" vertex="1">
          <mxGeometry x="11" y="35" width="51" as="geometry" />
        </mxCell>
        <mxCell id="64" style="vsdxID=55;fillColor=#ffffff;gradientColor=#a4a4a4;shape=stencil(nZBLDoAgDERP0z3SIyjew0SURgSD+Lu9kMZoXLhwN9O+tukAlrNpJg1SzDH4QW/URgNYgZTkjA4UkwJUgGXng+6DX1zLfmoymdXo17xh5zmRJ6Q42BWCfc2oJfdAr+Yv+AP9Cb7OJ3H/2JG1HNGz/84klThPVCc=);strokeColor=none;strokeWidth=0;spacingTop=-3;spacingBottom=-3;spacingLeft=-3;spacingRight=-3;points=[];labelBackgroundColor=none;rounded=0;html=1;whiteSpace=wrap;" parent="56" vertex="1">
          <mxGeometry x="11" y="43" width="51" as="geometry" />
        </mxCell>
        <mxCell id="65" style="vsdxID=56;fillColor=#ffffff;gradientColor=#a4a4a4;shape=stencil(nZBLDoAgDERP0z3SIyjew0SURgSD+Lu9kMZoXLhwN9O+tukAlrNpJg1SzDH4QW/URgNYgZTkjA4UkwJUgGXng+6DX1zLfmoymdXo17xh5zmRJ6Q42BWCfc2oJfdAr+Yv+AP9Cb7OJ3H/2JG1HNGz/84klThPVCc=);strokeColor=none;strokeWidth=0;spacingTop=-3;spacingBottom=-3;spacingLeft=-3;spacingRight=-3;points=[];labelBackgroundColor=none;rounded=0;html=1;whiteSpace=wrap;" parent="56" vertex="1">
          <mxGeometry x="11" y="51" width="51" as="geometry" />
        </mxCell>
        <mxCell id="66" style="vsdxID=57;fillColor=#ffffff;gradientColor=#a4a4a4;shape=stencil(nZBLDoAgDERP0z3SIyjew0SURgSD+Lu9kMZoXLhwN9O+tukAlrNpJg1SzDH4QW/URgNYgZTkjA4UkwJUgGXng+6DX1zLfmoymdXo17xh5zmRJ6Q42BWCfc2oJfdAr+Yv+AP9Cb7OJ3H/2JG1HNGz/84klThPVCc=);strokeColor=none;strokeWidth=0;spacingTop=-3;spacingBottom=-3;spacingLeft=-3;spacingRight=-3;points=[];labelBackgroundColor=none;rounded=0;html=1;whiteSpace=wrap;" parent="56" vertex="1">
          <mxGeometry x="11" y="59" width="51" as="geometry" />
        </mxCell>
        <mxCell id="67" style="vsdxID=58;fillColor=#ffffff;gradientColor=#a4a4a4;shape=stencil(nZBLDoAgDERP0z3SIyjew0SURgSD+Lu9kMZoXLhwN9O+tukAlrNpJg1SzDH4QW/URgNYgZTkjA4UkwJUgGXng+6DX1zLfmoymdXo17xh5zmRJ6Q42BWCfc2oJfdAr+Yv+AP9Cb7OJ3H/2JG1HNGz/84klThPVCc=);strokeColor=none;strokeWidth=0;spacingTop=-3;spacingBottom=-3;spacingLeft=-3;spacingRight=-3;points=[];labelBackgroundColor=none;rounded=0;html=1;whiteSpace=wrap;" parent="56" vertex="1">
          <mxGeometry x="11" y="67" width="51" as="geometry" />
        </mxCell>
        <mxCell id="68" style="vsdxID=59;fillColor=#ffffff;gradientColor=#a4a4a4;shape=stencil(nZBLDoAgDERP0z3SIyjew0SURgSD+Lu9kMZoXLhwN9O+tukAlrNpJg1SzDH4QW/URgNYgZTkjA4UkwJUgGXng+6DX1zLfmoymdXo17xh5zmRJ6Q42BWCfc2oJfdAr+Yv+AP9Cb7OJ3H/2JG1HNGz/84klThPVCc=);strokeColor=none;strokeWidth=0;spacingTop=-3;spacingBottom=-3;spacingLeft=-3;spacingRight=-3;points=[];labelBackgroundColor=none;rounded=0;html=1;whiteSpace=wrap;" parent="56" vertex="1">
          <mxGeometry x="11" y="75" width="51" as="geometry" />
        </mxCell>
        <mxCell id="69" value="&lt;div style=&quot;font-size: 1px&quot;&gt;&lt;p style=&quot;text-align:left;margin-left:0;margin-right:0;margin-top:0px;margin-bottom:0px;text-indent:0;vertical-align:middle;direction:ltr;&quot;&gt;&lt;font style=&quot;font-size:16.93px;font-family:Calibri;color:#000000;direction:ltr;letter-spacing:0px;line-height:120%;opacity:1&quot;&gt;Fichier source &lt;br/&gt;pré-processé&lt;br/&gt;&lt;/font&gt;&lt;/p&gt;&lt;/div&gt;" style="text;vsdxID=47;fillColor=none;gradientColor=none;strokeColor=none;points=[];labelBackgroundColor=none;rounded=0;html=1;whiteSpace=wrap;verticalAlign=middle;align=left;overflow=width;;html=1;" parent="56" vertex="1">
          <mxGeometry x="74.67" y="25.43" width="114.66" height="51.93" as="geometry" />
        </mxCell>
        <mxCell id="70" value="&lt;div style=&quot;font-size: 1px&quot;&gt;&lt;font style=&quot;font-size:25.4px;font-family:Calibri;color:#000000;direction:ltr;letter-spacing:0px;line-height:120%;opacity:1&quot;&gt;&lt;b&gt;.i&lt;br/&gt;&lt;/b&gt;&lt;/font&gt;&lt;/div&gt;" style="verticalAlign=middle;align=center;overflow=width;vsdxID=60;fillColor=none;gradientColor=none;shape=stencil(nZBLDoAgDERP0z3SIyjew0SURgSD+Lu9kMZoXLhwN9O+tukAlrNpJg1SzDH4QW/URgNYgZTkjA4UkwJUgGXng+6DX1zLfmoymdXo17xh5zmRJ6Q42BWCfc2oJfdAr+Yv+AP9Cb7OJ3H/2JG1HNGz/84klThPVCc=);strokeColor=none;strokeWidth=2;points=[];labelBackgroundColor=none;rounded=0;html=1;whiteSpace=wrap;" parent="55" vertex="1">
          <mxGeometry x="14" y="34" width="48" height="28" as="geometry" />
        </mxCell>
        <UserObject label="" tags="Background" id="71">
          <mxCell style="vsdxID=118;fillColor=none;gradientColor=none;dashed=1;dashPattern=2.00 2.00;strokeColor=none;strokeWidth=2;points=[];labelBackgroundColor=none;rounded=0;html=1;whiteSpace=wrap;" parent="1" vertex="1">
            <mxGeometry x="297" y="347" width="580" height="28" as="geometry" />
          </mxCell>
        </UserObject>
        <UserObject label="" tags="Background" id="164">
          <mxCell style="vsdxID=119;edgeStyle=none;dashed=1;dashPattern=2.00 2.00;startArrow=none;endArrow=none;startSize=5;endSize=5;strokeWidth=2;strokeColor=#000000;spacingTop=0;spacingBottom=0;spacingLeft=0;spacingRight=0;verticalAlign=middle;html=1;labelBackgroundColor=#ffffff;rounded=0;" parent="71" edge="1">
            <mxGeometry relative="1" as="geometry">
              <mxPoint as="offset" />
              <Array as="points" />
              <mxPoint as="sourcePoint" />
              <mxPoint x="292" as="targetPoint" />
            </mxGeometry>
          </mxCell>
        </UserObject>
        <UserObject label="" tags="Background" id="165">
          <mxCell style="vsdxID=120;edgeStyle=none;dashed=1;dashPattern=2.00 2.00;startArrow=none;endArrow=none;startSize=5;endSize=5;strokeWidth=2;strokeColor=#000000;spacingTop=0;spacingBottom=0;spacingLeft=0;spacingRight=0;verticalAlign=middle;html=1;labelBackgroundColor=#ffffff;rounded=0;" parent="71" edge="1">
            <mxGeometry relative="1" as="geometry">
              <Array as="points" />
              <mxPoint x="292" as="sourcePoint" />
              <mxPoint x="364" y="28" as="targetPoint" />
            </mxGeometry>
          </mxCell>
        </UserObject>
        <UserObject label="" tags="Background" id="166">
          <mxCell style="vsdxID=121;edgeStyle=none;dashed=1;dashPattern=2.00 2.00;startArrow=none;endArrow=none;startSize=5;endSize=5;strokeWidth=2;strokeColor=#000000;spacingTop=0;spacingBottom=0;spacingLeft=0;spacingRight=0;verticalAlign=middle;html=1;labelBackgroundColor=#ffffff;rounded=0;" parent="71" edge="1">
            <mxGeometry relative="1" as="geometry">
              <mxPoint as="offset" />
              <Array as="points" />
              <mxPoint x="364" y="28" as="sourcePoint" />
              <mxPoint x="580" y="28" as="targetPoint" />
            </mxGeometry>
          </mxCell>
        </UserObject>
        <UserObject label="" tags="Background" id="167">
          <mxCell style="vsdxID=123;edgeStyle=none;dashed=1;dashPattern=2.00 2.00;startArrow=none;endArrow=none;startSize=5;endSize=5;strokeWidth=2;strokeColor=#000000;spacingTop=0;spacingBottom=0;spacingLeft=0;spacingRight=0;verticalAlign=middle;html=1;labelBackgroundColor=#ffffff;rounded=0;" parent="1" edge="1">
            <mxGeometry relative="1" as="geometry">
              <mxPoint as="offset" />
              <Array as="points" />
              <mxPoint x="297" y="467" as="sourcePoint" />
              <mxPoint x="589" y="467" as="targetPoint" />
            </mxGeometry>
          </mxCell>
        </UserObject>
        <UserObject label="" tags="Background" id="168">
          <mxCell style="vsdxID=124;edgeStyle=none;dashed=1;dashPattern=2.00 2.00;startArrow=none;endArrow=none;startSize=5;endSize=5;strokeWidth=2;strokeColor=#000000;spacingTop=0;spacingBottom=0;spacingLeft=0;spacingRight=0;verticalAlign=middle;html=1;labelBackgroundColor=#ffffff;rounded=0;" parent="1" edge="1">
            <mxGeometry relative="1" as="geometry">
              <Array as="points" />
              <mxPoint x="589" y="467" as="sourcePoint" />
              <mxPoint x="661" y="495" as="targetPoint" />
            </mxGeometry>
          </mxCell>
        </UserObject>
        <UserObject label="" tags="Background" id="169">
          <mxCell style="vsdxID=125;edgeStyle=none;dashed=1;dashPattern=2.00 2.00;startArrow=none;endArrow=none;startSize=5;endSize=5;strokeWidth=2;strokeColor=#000000;spacingTop=0;spacingBottom=0;spacingLeft=0;spacingRight=0;verticalAlign=middle;html=1;labelBackgroundColor=#ffffff;rounded=0;" parent="1" edge="1">
            <mxGeometry relative="1" as="geometry">
              <mxPoint as="offset" />
              <Array as="points" />
              <mxPoint x="661" y="495" as="sourcePoint" />
              <mxPoint x="877" y="495" as="targetPoint" />
            </mxGeometry>
          </mxCell>
        </UserObject>
        <UserObject label="" tags="Background" id="72">
          <mxCell style="vsdxID=126;fillColor=none;gradientColor=none;strokeColor=none;strokeWidth=2;points=[];labelBackgroundColor=none;rounded=0;html=1;whiteSpace=wrap;" parent="1" vertex="1">
            <mxGeometry x="450" y="575" width="78" height="97" as="geometry" />
          </mxCell>
        </UserObject>
        <mxCell id="73" style="vsdxID=96;fillColor=none;gradientColor=none;strokeColor=none;points=[];labelBackgroundColor=none;rounded=0;html=1;whiteSpace=wrap;" parent="72" vertex="1">
          <mxGeometry width="78" height="97" as="geometry" />
        </mxCell>
        <mxCell id="74" style="vsdxID=97;fillColor=#FFFFFF;gradientColor=none;shape=stencil(pZHNDsIgEISfhitZFkzDudb3aFIqRISG4t/bCxJjW22i8Ta7fLMhM4TXo24HRRDGGPxBXUwXNeFbgmicVsHEpAhvCK97H9Q++JPryjy0mczq6M/5wrX4GED2INzKjIwyfGx2BbfGTfBKULGZGWAdnl8GCvxb9vmrj6iUVFb/4CgoinXDWyQ/4ssEk3il3xtrS3nT92VbaVWa5s0d);strokeColor=none;strokeWidth=0;spacingTop=-3;spacingBottom=-3;spacingLeft=-3;spacingRight=-3;points=[];labelBackgroundColor=none;rounded=0;html=1;whiteSpace=wrap;" parent="73" vertex="1">
          <mxGeometry x="5" y="8" width="68" height="80" as="geometry" />
        </mxCell>
        <mxCell id="75" style="vsdxID=98;fillColor=#FFFFFF;gradientColor=#ffffff;shape=stencil(nZHdCsIwDIWfJrcjSxQfYM73GKyzwdqOrv69va1BHIKKuzvJ+U4gCXAz2W40QDilGA7mIn2ywFsgEm9NlJQVcAvcDCGafQwn32s9doUs6hjOZcJVc5tVtaaSIrxpBx/VTmEnfgbjMrDGL+jTXARTXSF/xv9a7gecxeuGgzinL5j77zfPLf0Xt3c=);strokeColor=none;strokeWidth=0;spacingTop=-3;spacingBottom=-3;spacingLeft=-3;spacingRight=-3;points=[];labelBackgroundColor=none;rounded=0;html=1;whiteSpace=wrap;" parent="73" vertex="1">
          <mxGeometry x="5" y="8" width="67" height="80" as="geometry" />
        </mxCell>
        <mxCell id="76" style="vsdxID=99;fillColor=#a6a6a6;gradientColor=none;shape=stencil(nZHdDsIgDIWfprek0jjles73WDImRISF4d/bCzbG+Z94d1q+NodToHo07aBB4phi2Oqj7ZIBWoGU1hsdbcoKqAGq+xD1Joa977ge2kIWtQuHsuHEczPEMiPxzLWqxHJ+7awZd9ZP8ErIxQOPn1n8D7w5eou+2FVCfbH783dZ3JPprXMc7PT9Ocnc4itQcwE=);strokeColor=none;strokeWidth=0;spacingTop=-3;spacingBottom=-3;spacingLeft=-3;spacingRight=-3;points=[];labelBackgroundColor=none;rounded=0;html=1;whiteSpace=wrap;" parent="73" vertex="1">
          <mxGeometry x="54" y="8" width="18" height="17" as="geometry" />
        </mxCell>
        <mxCell id="77" style="vsdxID=100;fillColor=#FFFFFF;gradientColor=none;shape=stencil(UzV2Ls5ILEhVNTIoLinKz04tz0wpyVA1dlE1MsrMy0gtyiwBslSNXVWNndPyi1LTi/JL81Ig/IJEkEoQKze/DGRCBUSfAUiHkUElhGdoAOG7QZTmZOYhKYVJwhRbWupZmuBWjqoYj7l4nQBkIJyelpmTA/E5sjy6V4FCkGAydgUA);strokeColor=none;strokeWidth=0;spacingTop=-3;spacingBottom=-3;spacingLeft=-3;spacingRight=-3;points=[];labelBackgroundColor=none;rounded=0;html=1;whiteSpace=wrap;" parent="73" vertex="1">
          <mxGeometry x="55" y="9" width="16" height="15" as="geometry" />
        </mxCell>
        <mxCell id="78" style="vsdxID=101;fillColor=none;gradientColor=none;shape=stencil(pZHNDsIgEISfhitZFkzDudb3aFIqRISG4t/bCxJjW22i8Ta7fLMhM4TXo24HRRDGGPxBXUwXNeFbgmicVsHEpAhvCK97H9Q++JPryjy0mczq6M/5wrX4GED2INzKjIwyfGx2BbfGTfBKULGZGWAdnl8GCvxb9vmrj6iUVFb/4CgoinXDWyQ/4ssEk3il3xtrS3nT92VbaVWa5s0d);strokeColor=#000000;spacingTop=-3;spacingBottom=-3;spacingLeft=-3;spacingRight=-3;points=[];labelBackgroundColor=none;rounded=0;html=1;whiteSpace=wrap;" parent="73" vertex="1">
          <mxGeometry x="5" y="8" width="68" height="80" as="geometry" />
        </mxCell>
        <mxCell id="79" style="vsdxID=102;fillColor=#ffffff;gradientColor=#a4a4a4;shape=stencil(nZBLDoAgDERP0z3SIyjew0SURgSD+Lu9kMZoXLhwN9O+tukAlrNpJg1SzDH4QW/URgNYgZTkjA4UkwJUgGXng+6DX1zLfmoymdXo17xh5zmRJ6Q42BWCfc2oJfdAr+Yv+AP9Cb7OJ3H/2JG1HNGz/84klThPVCc=);strokeColor=none;strokeWidth=0;spacingTop=-3;spacingBottom=-3;spacingLeft=-3;spacingRight=-3;points=[];labelBackgroundColor=none;rounded=0;html=1;whiteSpace=wrap;" parent="73" vertex="1">
          <mxGeometry x="11" y="27" width="31" as="geometry" />
        </mxCell>
        <mxCell id="80" style="vsdxID=103;fillColor=#ffffff;gradientColor=#a4a4a4;shape=stencil(nZBLDoAgDERP0z3SIyjew0SURgSD+Lu9kMZoXLhwN9O+tukAlrNpJg1SzDH4QW/URgNYgZTkjA4UkwJUgGXng+6DX1zLfmoymdXo17xh5zmRJ6Q42BWCfc2oJfdAr+Yv+AP9Cb7OJ3H/2JG1HNGz/84klThPVCc=);strokeColor=none;strokeWidth=0;spacingTop=-3;spacingBottom=-3;spacingLeft=-3;spacingRight=-3;points=[];labelBackgroundColor=none;rounded=0;html=1;whiteSpace=wrap;" parent="73" vertex="1">
          <mxGeometry x="11" y="35" width="51" as="geometry" />
        </mxCell>
        <mxCell id="81" style="vsdxID=104;fillColor=#ffffff;gradientColor=#a4a4a4;shape=stencil(nZBLDoAgDERP0z3SIyjew0SURgSD+Lu9kMZoXLhwN9O+tukAlrNpJg1SzDH4QW/URgNYgZTkjA4UkwJUgGXng+6DX1zLfmoymdXo17xh5zmRJ6Q42BWCfc2oJfdAr+Yv+AP9Cb7OJ3H/2JG1HNGz/84klThPVCc=);strokeColor=none;strokeWidth=0;spacingTop=-3;spacingBottom=-3;spacingLeft=-3;spacingRight=-3;points=[];labelBackgroundColor=none;rounded=0;html=1;whiteSpace=wrap;" parent="73" vertex="1">
          <mxGeometry x="11" y="43" width="51" as="geometry" />
        </mxCell>
        <mxCell id="82" style="vsdxID=105;fillColor=#ffffff;gradientColor=#a4a4a4;shape=stencil(nZBLDoAgDERP0z3SIyjew0SURgSD+Lu9kMZoXLhwN9O+tukAlrNpJg1SzDH4QW/URgNYgZTkjA4UkwJUgGXng+6DX1zLfmoymdXo17xh5zmRJ6Q42BWCfc2oJfdAr+Yv+AP9Cb7OJ3H/2JG1HNGz/84klThPVCc=);strokeColor=none;strokeWidth=0;spacingTop=-3;spacingBottom=-3;spacingLeft=-3;spacingRight=-3;points=[];labelBackgroundColor=none;rounded=0;html=1;whiteSpace=wrap;" parent="73" vertex="1">
          <mxGeometry x="11" y="51" width="51" as="geometry" />
        </mxCell>
        <mxCell id="83" style="vsdxID=106;fillColor=#ffffff;gradientColor=#a4a4a4;shape=stencil(nZBLDoAgDERP0z3SIyjew0SURgSD+Lu9kMZoXLhwN9O+tukAlrNpJg1SzDH4QW/URgNYgZTkjA4UkwJUgGXng+6DX1zLfmoymdXo17xh5zmRJ6Q42BWCfc2oJfdAr+Yv+AP9Cb7OJ3H/2JG1HNGz/84klThPVCc=);strokeColor=none;strokeWidth=0;spacingTop=-3;spacingBottom=-3;spacingLeft=-3;spacingRight=-3;points=[];labelBackgroundColor=none;rounded=0;html=1;whiteSpace=wrap;" parent="73" vertex="1">
          <mxGeometry x="11" y="59" width="51" as="geometry" />
        </mxCell>
        <mxCell id="84" style="vsdxID=107;fillColor=#ffffff;gradientColor=#a4a4a4;shape=stencil(nZBLDoAgDERP0z3SIyjew0SURgSD+Lu9kMZoXLhwN9O+tukAlrNpJg1SzDH4QW/URgNYgZTkjA4UkwJUgGXng+6DX1zLfmoymdXo17xh5zmRJ6Q42BWCfc2oJfdAr+Yv+AP9Cb7OJ3H/2JG1HNGz/84klThPVCc=);strokeColor=none;strokeWidth=0;spacingTop=-3;spacingBottom=-3;spacingLeft=-3;spacingRight=-3;points=[];labelBackgroundColor=none;rounded=0;html=1;whiteSpace=wrap;" parent="73" vertex="1">
          <mxGeometry x="11" y="67" width="51" as="geometry" />
        </mxCell>
        <mxCell id="85" style="vsdxID=108;fillColor=#ffffff;gradientColor=#a4a4a4;shape=stencil(nZBLDoAgDERP0z3SIyjew0SURgSD+Lu9kMZoXLhwN9O+tukAlrNpJg1SzDH4QW/URgNYgZTkjA4UkwJUgGXng+6DX1zLfmoymdXo17xh5zmRJ6Q42BWCfc2oJfdAr+Yv+AP9Cb7OJ3H/2JG1HNGz/84klThPVCc=);strokeColor=none;strokeWidth=0;spacingTop=-3;spacingBottom=-3;spacingLeft=-3;spacingRight=-3;points=[];labelBackgroundColor=none;rounded=0;html=1;whiteSpace=wrap;" parent="73" vertex="1">
          <mxGeometry x="11" y="75" width="51" as="geometry" />
        </mxCell>
        <mxCell id="86" value="&lt;div style=&quot;font-size: 1px&quot;&gt;&lt;font style=&quot;font-size:16.93px;font-family:Calibri;color:#000000;direction:ltr;letter-spacing:0px;line-height:120%;opacity:1&quot;&gt;Fichier exécutable&lt;br/&gt;&lt;/font&gt;&lt;/div&gt;" style="text;vsdxID=96;fillColor=none;gradientColor=none;strokeColor=none;points=[];labelBackgroundColor=none;rounded=0;html=1;whiteSpace=wrap;verticalAlign=middle;align=center;overflow=width;;html=1;" parent="73" vertex="1">
          <mxGeometry x="-31.98" y="91.59" width="140.12" height="31.61" as="geometry" />
        </mxCell>
        <mxCell id="87" value="&lt;div style=&quot;font-size: 1px&quot;&gt;&lt;font style=&quot;font-size:19.76px;font-family:Calibri;color:#000000;direction:ltr;letter-spacing:0px;line-height:120%;opacity:1&quot;&gt;&lt;b&gt;.out&lt;br/&gt;&lt;/b&gt;&lt;/font&gt;&lt;/div&gt;" style="verticalAlign=middle;align=center;overflow=width;vsdxID=109;fillColor=none;gradientColor=none;shape=stencil(nZBLDoAgDERP0z3SIyjew0SURgSD+Lu9kMZoXLhwN9O+tukAlrNpJg1SzDH4QW/URgNYgZTkjA4UkwJUgGXng+6DX1zLfmoymdXo17xh5zmRJ6Q42BWCfc2oJfdAr+Yv+AP9Cb7OJ3H/2JG1HNGz/84klThPVCc=);strokeColor=none;strokeWidth=2;points=[];labelBackgroundColor=none;rounded=0;html=1;whiteSpace=wrap;" parent="72" vertex="1">
          <mxGeometry x="13" y="34" width="48" height="28" as="geometry" />
        </mxCell>
        <UserObject label="&lt;div style=&quot;font-size: 1px&quot;&gt;&lt;font style=&quot;font-size:16.93px;font-family:Calibri;color:#000000;direction:ltr;letter-spacing:0px;line-height:120%;opacity:1&quot;&gt;gcc&lt;br/&gt;&lt;/font&gt;&lt;/div&gt;" tags="Background" id="88">
          <mxCell style="verticalAlign=middle;align=center;overflow=width;vsdxID=128;fillColor=none;gradientColor=none;shape=stencil(nZBLDoAgDERP0z3SIyjew0SURgSD+Lu9kMZoXLhwN9O+tukAlrNpJg1SzDH4QW/URgNYgZTkjA4UkwJUgGXng+6DX1zLfmoymdXo17xh5zmRJ6Q42BWCfc2oJfdAr+Yv+AP9Cb7OJ3H/2JG1HNGz/84klThPVCc=);strokeColor=none;strokeWidth=2;points=[];labelBackgroundColor=none;rounded=0;html=1;whiteSpace=wrap;" parent="1" vertex="1">
            <mxGeometry x="343" y="131" width="68" height="28" as="geometry" />
          </mxCell>
        </UserObject>
        <UserObject label="" tags="Background" id="89">
          <mxCell style="vsdxID=146;fillColor=none;gradientColor=none;strokeColor=none;strokeWidth=2;points=[];labelBackgroundColor=none;rounded=0;html=1;whiteSpace=wrap;" parent="1" vertex="1">
            <mxGeometry x="179" y="476" width="78" height="97" as="geometry" />
          </mxCell>
        </UserObject>
        <mxCell id="90" style="vsdxID=147;fillColor=none;gradientColor=none;strokeColor=none;points=[];labelBackgroundColor=none;rounded=0;html=1;whiteSpace=wrap;" parent="89" vertex="1">
          <mxGeometry width="78" height="97" as="geometry" />
        </mxCell>
        <mxCell id="91" style="vsdxID=148;fillColor=#FFFFFF;gradientColor=none;shape=stencil(pZHNDsIgEISfhitZFkzDudb3aFIqRISG4t/bCxJjW22i8Ta7fLMhM4TXo24HRRDGGPxBXUwXNeFbgmicVsHEpAhvCK97H9Q++JPryjy0mczq6M/5wrX4GED2INzKjIwyfGx2BbfGTfBKULGZGWAdnl8GCvxb9vmrj6iUVFb/4CgoinXDWyQ/4ssEk3il3xtrS3nT92VbaVWa5s0d);strokeColor=none;strokeWidth=0;spacingTop=-3;spacingBottom=-3;spacingLeft=-3;spacingRight=-3;points=[];labelBackgroundColor=none;rounded=0;html=1;whiteSpace=wrap;" parent="90" vertex="1">
          <mxGeometry x="5" y="8" width="68" height="80" as="geometry" />
        </mxCell>
        <mxCell id="92" style="vsdxID=149;fillColor=#FFFFFF;gradientColor=#ffffff;shape=stencil(nZHdCsIwDIWfJrcjSxQfYM73GKyzwdqOrv69va1BHIKKuzvJ+U4gCXAz2W40QDilGA7mIn2ywFsgEm9NlJQVcAvcDCGafQwn32s9doUs6hjOZcJVc5tVtaaSIrxpBx/VTmEnfgbjMrDGL+jTXARTXSF/xv9a7gecxeuGgzinL5j77zfPLf0Xt3c=);strokeColor=none;strokeWidth=0;spacingTop=-3;spacingBottom=-3;spacingLeft=-3;spacingRight=-3;points=[];labelBackgroundColor=none;rounded=0;html=1;whiteSpace=wrap;" parent="90" vertex="1">
          <mxGeometry x="5" y="8" width="67" height="80" as="geometry" />
        </mxCell>
        <mxCell id="93" style="vsdxID=150;fillColor=#a6a6a6;gradientColor=none;shape=stencil(nZHdDsIgDIWfprek0jjles73WDImRISF4d/bCzbG+Z94d1q+NodToHo07aBB4phi2Oqj7ZIBWoGU1hsdbcoKqAGq+xD1Joa977ge2kIWtQuHsuHEczPEMiPxzLWqxHJ+7awZd9ZP8ErIxQOPn1n8D7w5eou+2FVCfbH783dZ3JPprXMc7PT9Ocnc4itQcwE=);strokeColor=none;strokeWidth=0;spacingTop=-3;spacingBottom=-3;spacingLeft=-3;spacingRight=-3;points=[];labelBackgroundColor=none;rounded=0;html=1;whiteSpace=wrap;" parent="90" vertex="1">
          <mxGeometry x="54" y="8" width="18" height="17" as="geometry" />
        </mxCell>
        <mxCell id="94" style="vsdxID=151;fillColor=#FFFFFF;gradientColor=none;shape=stencil(UzV2Ls5ILEhVNTIoLinKz04tz0wpyVA1dlE1MsrMy0gtyiwBslSNXVWNndPyi1LTi/JL81Ig/IJEkEoQKze/DGRCBUSfAUiHkUElhGdoAOG7QZTmZOYhKYVJwhRbWupZmuBWjqoYj7l4nQBkIJyelpmTA/E5sjy6V4FCkGAydgUA);strokeColor=none;strokeWidth=0;spacingTop=-3;spacingBottom=-3;spacingLeft=-3;spacingRight=-3;points=[];labelBackgroundColor=none;rounded=0;html=1;whiteSpace=wrap;" parent="90" vertex="1">
          <mxGeometry x="55" y="9" width="16" height="15" as="geometry" />
        </mxCell>
        <mxCell id="95" style="vsdxID=152;fillColor=none;gradientColor=none;shape=stencil(pZHNDsIgEISfhitZFkzDudb3aFIqRISG4t/bCxJjW22i8Ta7fLMhM4TXo24HRRDGGPxBXUwXNeFbgmicVsHEpAhvCK97H9Q++JPryjy0mczq6M/5wrX4GED2INzKjIwyfGx2BbfGTfBKULGZGWAdnl8GCvxb9vmrj6iUVFb/4CgoinXDWyQ/4ssEk3il3xtrS3nT92VbaVWa5s0d);strokeColor=#000000;spacingTop=-3;spacingBottom=-3;spacingLeft=-3;spacingRight=-3;points=[];labelBackgroundColor=none;rounded=0;html=1;whiteSpace=wrap;" parent="90" vertex="1">
          <mxGeometry x="5" y="8" width="68" height="80" as="geometry" />
        </mxCell>
        <mxCell id="96" style="vsdxID=153;fillColor=#ffffff;gradientColor=#a4a4a4;shape=stencil(nZBLDoAgDERP0z3SIyjew0SURgSD+Lu9kMZoXLhwN9O+tukAlrNpJg1SzDH4QW/URgNYgZTkjA4UkwJUgGXng+6DX1zLfmoymdXo17xh5zmRJ6Q42BWCfc2oJfdAr+Yv+AP9Cb7OJ3H/2JG1HNGz/84klThPVCc=);strokeColor=none;strokeWidth=0;spacingTop=-3;spacingBottom=-3;spacingLeft=-3;spacingRight=-3;points=[];labelBackgroundColor=none;rounded=0;html=1;whiteSpace=wrap;" parent="90" vertex="1">
          <mxGeometry x="11" y="27" width="31" as="geometry" />
        </mxCell>
        <mxCell id="97" style="vsdxID=154;fillColor=#ffffff;gradientColor=#a4a4a4;shape=stencil(nZBLDoAgDERP0z3SIyjew0SURgSD+Lu9kMZoXLhwN9O+tukAlrNpJg1SzDH4QW/URgNYgZTkjA4UkwJUgGXng+6DX1zLfmoymdXo17xh5zmRJ6Q42BWCfc2oJfdAr+Yv+AP9Cb7OJ3H/2JG1HNGz/84klThPVCc=);strokeColor=none;strokeWidth=0;spacingTop=-3;spacingBottom=-3;spacingLeft=-3;spacingRight=-3;points=[];labelBackgroundColor=none;rounded=0;html=1;whiteSpace=wrap;" parent="90" vertex="1">
          <mxGeometry x="11" y="35" width="51" as="geometry" />
        </mxCell>
        <mxCell id="98" style="vsdxID=155;fillColor=#ffffff;gradientColor=#a4a4a4;shape=stencil(nZBLDoAgDERP0z3SIyjew0SURgSD+Lu9kMZoXLhwN9O+tukAlrNpJg1SzDH4QW/URgNYgZTkjA4UkwJUgGXng+6DX1zLfmoymdXo17xh5zmRJ6Q42BWCfc2oJfdAr+Yv+AP9Cb7OJ3H/2JG1HNGz/84klThPVCc=);strokeColor=none;strokeWidth=0;spacingTop=-3;spacingBottom=-3;spacingLeft=-3;spacingRight=-3;points=[];labelBackgroundColor=none;rounded=0;html=1;whiteSpace=wrap;" parent="90" vertex="1">
          <mxGeometry x="11" y="43" width="51" as="geometry" />
        </mxCell>
        <mxCell id="99" style="vsdxID=156;fillColor=#ffffff;gradientColor=#a4a4a4;shape=stencil(nZBLDoAgDERP0z3SIyjew0SURgSD+Lu9kMZoXLhwN9O+tukAlrNpJg1SzDH4QW/URgNYgZTkjA4UkwJUgGXng+6DX1zLfmoymdXo17xh5zmRJ6Q42BWCfc2oJfdAr+Yv+AP9Cb7OJ3H/2JG1HNGz/84klThPVCc=);strokeColor=none;strokeWidth=0;spacingTop=-3;spacingBottom=-3;spacingLeft=-3;spacingRight=-3;points=[];labelBackgroundColor=none;rounded=0;html=1;whiteSpace=wrap;" parent="90" vertex="1">
          <mxGeometry x="11" y="51" width="51" as="geometry" />
        </mxCell>
        <mxCell id="100" style="vsdxID=157;fillColor=#ffffff;gradientColor=#a4a4a4;shape=stencil(nZBLDoAgDERP0z3SIyjew0SURgSD+Lu9kMZoXLhwN9O+tukAlrNpJg1SzDH4QW/URgNYgZTkjA4UkwJUgGXng+6DX1zLfmoymdXo17xh5zmRJ6Q42BWCfc2oJfdAr+Yv+AP9Cb7OJ3H/2JG1HNGz/84klThPVCc=);strokeColor=none;strokeWidth=0;spacingTop=-3;spacingBottom=-3;spacingLeft=-3;spacingRight=-3;points=[];labelBackgroundColor=none;rounded=0;html=1;whiteSpace=wrap;" parent="90" vertex="1">
          <mxGeometry x="11" y="59" width="51" as="geometry" />
        </mxCell>
        <mxCell id="101" style="vsdxID=158;fillColor=#ffffff;gradientColor=#a4a4a4;shape=stencil(nZBLDoAgDERP0z3SIyjew0SURgSD+Lu9kMZoXLhwN9O+tukAlrNpJg1SzDH4QW/URgNYgZTkjA4UkwJUgGXng+6DX1zLfmoymdXo17xh5zmRJ6Q42BWCfc2oJfdAr+Yv+AP9Cb7OJ3H/2JG1HNGz/84klThPVCc=);strokeColor=none;strokeWidth=0;spacingTop=-3;spacingBottom=-3;spacingLeft=-3;spacingRight=-3;points=[];labelBackgroundColor=none;rounded=0;html=1;whiteSpace=wrap;" parent="90" vertex="1">
          <mxGeometry x="11" y="67" width="51" as="geometry" />
        </mxCell>
        <mxCell id="102" style="vsdxID=159;fillColor=#ffffff;gradientColor=#a4a4a4;shape=stencil(nZBLDoAgDERP0z3SIyjew0SURgSD+Lu9kMZoXLhwN9O+tukAlrNpJg1SzDH4QW/URgNYgZTkjA4UkwJUgGXng+6DX1zLfmoymdXo17xh5zmRJ6Q42BWCfc2oJfdAr+Yv+AP9Cb7OJ3H/2JG1HNGz/84klThPVCc=);strokeColor=none;strokeWidth=0;spacingTop=-3;spacingBottom=-3;spacingLeft=-3;spacingRight=-3;points=[];labelBackgroundColor=none;rounded=0;html=1;whiteSpace=wrap;" parent="90" vertex="1">
          <mxGeometry x="11" y="75" width="51" as="geometry" />
        </mxCell>
        <mxCell id="103" value="&lt;div style=&quot;font-size: 1px&quot;&gt;&lt;/div&gt;" style="text;vsdxID=147;fillColor=none;gradientColor=none;strokeColor=none;points=[];labelBackgroundColor=none;rounded=0;html=1;whiteSpace=wrap;verticalAlign=middle;align=left;overflow=width;;html=1;" parent="90" vertex="1">
          <mxGeometry x="157.4" y="36.4" width="11.29" height="31.61" as="geometry" />
        </mxCell>
        <mxCell id="104" value="&lt;div style=&quot;font-size: 1px&quot;&gt;&lt;font style=&quot;font-size:25.4px;font-family:Calibri;color:#000000;direction:ltr;letter-spacing:0px;line-height:120%;opacity:1&quot;&gt;&lt;b&gt;.o&lt;br/&gt;&lt;/b&gt;&lt;/font&gt;&lt;/div&gt;" style="verticalAlign=middle;align=center;overflow=width;vsdxID=160;fillColor=none;gradientColor=none;shape=stencil(nZBLDoAgDERP0z3SIyjew0SURgSD+Lu9kMZoXLhwN9O+tukAlrNpJg1SzDH4QW/URgNYgZTkjA4UkwJUgGXng+6DX1zLfmoymdXo17xh5zmRJ6Q42BWCfc2oJfdAr+Yv+AP9Cb7OJ3H/2JG1HNGz/84klThPVCc=);strokeColor=none;strokeWidth=2;points=[];labelBackgroundColor=none;rounded=0;html=1;whiteSpace=wrap;" parent="89" vertex="1">
          <mxGeometry x="14" y="34" width="48" height="28" as="geometry" />
        </mxCell>
        <UserObject label="" tags="Background" id="105">
          <mxCell style="vsdxID=162;fillColor=none;gradientColor=none;strokeColor=none;strokeWidth=2;points=[];labelBackgroundColor=none;rounded=0;html=1;whiteSpace=wrap;" parent="1" vertex="1">
            <mxGeometry x="179" y="356" width="78" height="97" as="geometry" />
          </mxCell>
        </UserObject>
        <mxCell id="106" style="vsdxID=163;fillColor=none;gradientColor=none;strokeColor=none;points=[];labelBackgroundColor=none;rounded=0;html=1;whiteSpace=wrap;" parent="105" vertex="1">
          <mxGeometry width="78" height="97" as="geometry" />
        </mxCell>
        <mxCell id="107" style="vsdxID=164;fillColor=#FFFFFF;gradientColor=none;shape=stencil(pZHNDsIgEISfhitZFkzDudb3aFIqRISG4t/bCxJjW22i8Ta7fLMhM4TXo24HRRDGGPxBXUwXNeFbgmicVsHEpAhvCK97H9Q++JPryjy0mczq6M/5wrX4GED2INzKjIwyfGx2BbfGTfBKULGZGWAdnl8GCvxb9vmrj6iUVFb/4CgoinXDWyQ/4ssEk3il3xtrS3nT92VbaVWa5s0d);strokeColor=none;strokeWidth=0;spacingTop=-3;spacingBottom=-3;spacingLeft=-3;spacingRight=-3;points=[];labelBackgroundColor=none;rounded=0;html=1;whiteSpace=wrap;" parent="106" vertex="1">
          <mxGeometry x="5" y="8" width="68" height="80" as="geometry" />
        </mxCell>
        <mxCell id="108" style="vsdxID=165;fillColor=#FFFFFF;gradientColor=#ffffff;shape=stencil(nZHdCsIwDIWfJrcjSxQfYM73GKyzwdqOrv69va1BHIKKuzvJ+U4gCXAz2W40QDilGA7mIn2ywFsgEm9NlJQVcAvcDCGafQwn32s9doUs6hjOZcJVc5tVtaaSIrxpBx/VTmEnfgbjMrDGL+jTXARTXSF/xv9a7gecxeuGgzinL5j77zfPLf0Xt3c=);strokeColor=none;strokeWidth=0;spacingTop=-3;spacingBottom=-3;spacingLeft=-3;spacingRight=-3;points=[];labelBackgroundColor=none;rounded=0;html=1;whiteSpace=wrap;" parent="106" vertex="1">
          <mxGeometry x="5" y="8" width="67" height="80" as="geometry" />
        </mxCell>
        <mxCell id="109" style="vsdxID=166;fillColor=#a6a6a6;gradientColor=none;shape=stencil(nZHdDsIgDIWfprek0jjles73WDImRISF4d/bCzbG+Z94d1q+NodToHo07aBB4phi2Oqj7ZIBWoGU1hsdbcoKqAGq+xD1Joa977ge2kIWtQuHsuHEczPEMiPxzLWqxHJ+7awZd9ZP8ErIxQOPn1n8D7w5eou+2FVCfbH783dZ3JPprXMc7PT9Ocnc4itQcwE=);strokeColor=none;strokeWidth=0;spacingTop=-3;spacingBottom=-3;spacingLeft=-3;spacingRight=-3;points=[];labelBackgroundColor=none;rounded=0;html=1;whiteSpace=wrap;" parent="106" vertex="1">
          <mxGeometry x="54" y="8" width="18" height="17" as="geometry" />
        </mxCell>
        <mxCell id="110" style="vsdxID=167;fillColor=#FFFFFF;gradientColor=none;shape=stencil(UzV2Ls5ILEhVNTIoLinKz04tz0wpyVA1dlE1MsrMy0gtyiwBslSNXVWNndPyi1LTi/JL81Ig/IJEkEoQKze/DGRCBUSfAUiHkUElhGdoAOG7QZTmZOYhKYVJwhRbWupZmuBWjqoYj7l4nQBkIJyelpmTA/E5sjy6V4FCkGAydgUA);strokeColor=none;strokeWidth=0;spacingTop=-3;spacingBottom=-3;spacingLeft=-3;spacingRight=-3;points=[];labelBackgroundColor=none;rounded=0;html=1;whiteSpace=wrap;" parent="106" vertex="1">
          <mxGeometry x="55" y="9" width="16" height="15" as="geometry" />
        </mxCell>
        <mxCell id="111" style="vsdxID=168;fillColor=none;gradientColor=none;shape=stencil(pZHNDsIgEISfhitZFkzDudb3aFIqRISG4t/bCxJjW22i8Ta7fLMhM4TXo24HRRDGGPxBXUwXNeFbgmicVsHEpAhvCK97H9Q++JPryjy0mczq6M/5wrX4GED2INzKjIwyfGx2BbfGTfBKULGZGWAdnl8GCvxb9vmrj6iUVFb/4CgoinXDWyQ/4ssEk3il3xtrS3nT92VbaVWa5s0d);strokeColor=#000000;spacingTop=-3;spacingBottom=-3;spacingLeft=-3;spacingRight=-3;points=[];labelBackgroundColor=none;rounded=0;html=1;whiteSpace=wrap;" parent="106" vertex="1">
          <mxGeometry x="5" y="8" width="68" height="80" as="geometry" />
        </mxCell>
        <mxCell id="112" style="vsdxID=169;fillColor=#ffffff;gradientColor=#a4a4a4;shape=stencil(nZBLDoAgDERP0z3SIyjew0SURgSD+Lu9kMZoXLhwN9O+tukAlrNpJg1SzDH4QW/URgNYgZTkjA4UkwJUgGXng+6DX1zLfmoymdXo17xh5zmRJ6Q42BWCfc2oJfdAr+Yv+AP9Cb7OJ3H/2JG1HNGz/84klThPVCc=);strokeColor=none;strokeWidth=0;spacingTop=-3;spacingBottom=-3;spacingLeft=-3;spacingRight=-3;points=[];labelBackgroundColor=none;rounded=0;html=1;whiteSpace=wrap;" parent="106" vertex="1">
          <mxGeometry x="11" y="27" width="31" as="geometry" />
        </mxCell>
        <mxCell id="113" style="vsdxID=170;fillColor=#ffffff;gradientColor=#a4a4a4;shape=stencil(nZBLDoAgDERP0z3SIyjew0SURgSD+Lu9kMZoXLhwN9O+tukAlrNpJg1SzDH4QW/URgNYgZTkjA4UkwJUgGXng+6DX1zLfmoymdXo17xh5zmRJ6Q42BWCfc2oJfdAr+Yv+AP9Cb7OJ3H/2JG1HNGz/84klThPVCc=);strokeColor=none;strokeWidth=0;spacingTop=-3;spacingBottom=-3;spacingLeft=-3;spacingRight=-3;points=[];labelBackgroundColor=none;rounded=0;html=1;whiteSpace=wrap;" parent="106" vertex="1">
          <mxGeometry x="11" y="35" width="51" as="geometry" />
        </mxCell>
        <mxCell id="114" style="vsdxID=171;fillColor=#ffffff;gradientColor=#a4a4a4;shape=stencil(nZBLDoAgDERP0z3SIyjew0SURgSD+Lu9kMZoXLhwN9O+tukAlrNpJg1SzDH4QW/URgNYgZTkjA4UkwJUgGXng+6DX1zLfmoymdXo17xh5zmRJ6Q42BWCfc2oJfdAr+Yv+AP9Cb7OJ3H/2JG1HNGz/84klThPVCc=);strokeColor=none;strokeWidth=0;spacingTop=-3;spacingBottom=-3;spacingLeft=-3;spacingRight=-3;points=[];labelBackgroundColor=none;rounded=0;html=1;whiteSpace=wrap;" parent="106" vertex="1">
          <mxGeometry x="11" y="43" width="51" as="geometry" />
        </mxCell>
        <mxCell id="115" style="vsdxID=172;fillColor=#ffffff;gradientColor=#a4a4a4;shape=stencil(nZBLDoAgDERP0z3SIyjew0SURgSD+Lu9kMZoXLhwN9O+tukAlrNpJg1SzDH4QW/URgNYgZTkjA4UkwJUgGXng+6DX1zLfmoymdXo17xh5zmRJ6Q42BWCfc2oJfdAr+Yv+AP9Cb7OJ3H/2JG1HNGz/84klThPVCc=);strokeColor=none;strokeWidth=0;spacingTop=-3;spacingBottom=-3;spacingLeft=-3;spacingRight=-3;points=[];labelBackgroundColor=none;rounded=0;html=1;whiteSpace=wrap;" parent="106" vertex="1">
          <mxGeometry x="11" y="51" width="51" as="geometry" />
        </mxCell>
        <mxCell id="116" style="vsdxID=173;fillColor=#ffffff;gradientColor=#a4a4a4;shape=stencil(nZBLDoAgDERP0z3SIyjew0SURgSD+Lu9kMZoXLhwN9O+tukAlrNpJg1SzDH4QW/URgNYgZTkjA4UkwJUgGXng+6DX1zLfmoymdXo17xh5zmRJ6Q42BWCfc2oJfdAr+Yv+AP9Cb7OJ3H/2JG1HNGz/84klThPVCc=);strokeColor=none;strokeWidth=0;spacingTop=-3;spacingBottom=-3;spacingLeft=-3;spacingRight=-3;points=[];labelBackgroundColor=none;rounded=0;html=1;whiteSpace=wrap;" parent="106" vertex="1">
          <mxGeometry x="11" y="59" width="51" as="geometry" />
        </mxCell>
        <mxCell id="117" style="vsdxID=174;fillColor=#ffffff;gradientColor=#a4a4a4;shape=stencil(nZBLDoAgDERP0z3SIyjew0SURgSD+Lu9kMZoXLhwN9O+tukAlrNpJg1SzDH4QW/URgNYgZTkjA4UkwJUgGXng+6DX1zLfmoymdXo17xh5zmRJ6Q42BWCfc2oJfdAr+Yv+AP9Cb7OJ3H/2JG1HNGz/84klThPVCc=);strokeColor=none;strokeWidth=0;spacingTop=-3;spacingBottom=-3;spacingLeft=-3;spacingRight=-3;points=[];labelBackgroundColor=none;rounded=0;html=1;whiteSpace=wrap;" parent="106" vertex="1">
          <mxGeometry x="11" y="67" width="51" as="geometry" />
        </mxCell>
        <mxCell id="118" style="vsdxID=175;fillColor=#ffffff;gradientColor=#a4a4a4;shape=stencil(nZBLDoAgDERP0z3SIyjew0SURgSD+Lu9kMZoXLhwN9O+tukAlrNpJg1SzDH4QW/URgNYgZTkjA4UkwJUgGXng+6DX1zLfmoymdXo17xh5zmRJ6Q42BWCfc2oJfdAr+Yv+AP9Cb7OJ3H/2JG1HNGz/84klThPVCc=);strokeColor=none;strokeWidth=0;spacingTop=-3;spacingBottom=-3;spacingLeft=-3;spacingRight=-3;points=[];labelBackgroundColor=none;rounded=0;html=1;whiteSpace=wrap;" parent="106" vertex="1">
          <mxGeometry x="11" y="75" width="51" as="geometry" />
        </mxCell>
        <mxCell id="119" value="&lt;div style=&quot;font-size: 1px&quot;&gt;&lt;/div&gt;" style="text;vsdxID=163;fillColor=none;gradientColor=none;strokeColor=none;points=[];labelBackgroundColor=none;rounded=0;html=1;whiteSpace=wrap;verticalAlign=middle;align=left;overflow=width;;html=1;" parent="106" vertex="1">
          <mxGeometry x="126.36" y="36.4" width="11.29" height="31.61" as="geometry" />
        </mxCell>
        <mxCell id="120" value="&lt;div style=&quot;font-size: 1px&quot;&gt;&lt;font style=&quot;font-size:25.4px;font-family:Calibri;color:#000000;direction:ltr;letter-spacing:0px;line-height:120%;opacity:1&quot;&gt;&lt;b&gt;.s&lt;br/&gt;&lt;/b&gt;&lt;/font&gt;&lt;/div&gt;" style="verticalAlign=middle;align=center;overflow=width;vsdxID=176;fillColor=none;gradientColor=none;shape=stencil(nZBLDoAgDERP0z3SIyjew0SURgSD+Lu9kMZoXLhwN9O+tukAlrNpJg1SzDH4QW/URgNYgZTkjA4UkwJUgGXng+6DX1zLfmoymdXo17xh5zmRJ6Q42BWCfc2oJfdAr+Yv+AP9Cb7OJ3H/2JG1HNGz/84klThPVCc=);strokeColor=none;strokeWidth=2;points=[];labelBackgroundColor=none;rounded=0;html=1;whiteSpace=wrap;" parent="105" vertex="1">
          <mxGeometry x="14" y="34" width="48" height="28" as="geometry" />
        </mxCell>
        <UserObject label="" tags="Background" id="121">
          <mxCell style="vsdxID=183;fillColor=none;gradientColor=none;strokeColor=none;strokeWidth=2;points=[];labelBackgroundColor=none;rounded=0;html=1;whiteSpace=wrap;" parent="1" vertex="1">
            <mxGeometry x="183" y="233" width="78" height="97" as="geometry" />
          </mxCell>
        </UserObject>
        <mxCell id="122" style="vsdxID=184;fillColor=none;gradientColor=none;strokeColor=none;points=[];labelBackgroundColor=none;rounded=0;html=1;whiteSpace=wrap;" parent="121" vertex="1">
          <mxGeometry width="78" height="97" as="geometry" />
        </mxCell>
        <mxCell id="123" style="vsdxID=185;fillColor=#FFFFFF;gradientColor=none;shape=stencil(pZHNDsIgEISfhitZFkzDudb3aFIqRISG4t/bCxJjW22i8Ta7fLMhM4TXo24HRRDGGPxBXUwXNeFbgmicVsHEpAhvCK97H9Q++JPryjy0mczq6M/5wrX4GED2INzKjIwyfGx2BbfGTfBKULGZGWAdnl8GCvxb9vmrj6iUVFb/4CgoinXDWyQ/4ssEk3il3xtrS3nT92VbaVWa5s0d);strokeColor=none;strokeWidth=0;spacingTop=-3;spacingBottom=-3;spacingLeft=-3;spacingRight=-3;points=[];labelBackgroundColor=none;rounded=0;html=1;whiteSpace=wrap;" parent="122" vertex="1">
          <mxGeometry x="5" y="8" width="68" height="80" as="geometry" />
        </mxCell>
        <mxCell id="124" style="vsdxID=186;fillColor=#FFFFFF;gradientColor=#ffffff;shape=stencil(nZHdCsIwDIWfJrcjSxQfYM73GKyzwdqOrv69va1BHIKKuzvJ+U4gCXAz2W40QDilGA7mIn2ywFsgEm9NlJQVcAvcDCGafQwn32s9doUs6hjOZcJVc5tVtaaSIrxpBx/VTmEnfgbjMrDGL+jTXARTXSF/xv9a7gecxeuGgzinL5j77zfPLf0Xt3c=);strokeColor=none;strokeWidth=0;spacingTop=-3;spacingBottom=-3;spacingLeft=-3;spacingRight=-3;points=[];labelBackgroundColor=none;rounded=0;html=1;whiteSpace=wrap;" parent="122" vertex="1">
          <mxGeometry x="5" y="8" width="67" height="80" as="geometry" />
        </mxCell>
        <mxCell id="125" style="vsdxID=187;fillColor=#a6a6a6;gradientColor=none;shape=stencil(nZHdDsIgDIWfprek0jjles73WDImRISF4d/bCzbG+Z94d1q+NodToHo07aBB4phi2Oqj7ZIBWoGU1hsdbcoKqAGq+xD1Joa977ge2kIWtQuHsuHEczPEMiPxzLWqxHJ+7awZd9ZP8ErIxQOPn1n8D7w5eou+2FVCfbH783dZ3JPprXMc7PT9Ocnc4itQcwE=);strokeColor=none;strokeWidth=0;spacingTop=-3;spacingBottom=-3;spacingLeft=-3;spacingRight=-3;points=[];labelBackgroundColor=none;rounded=0;html=1;whiteSpace=wrap;" parent="122" vertex="1">
          <mxGeometry x="54" y="8" width="18" height="17" as="geometry" />
        </mxCell>
        <mxCell id="126" style="vsdxID=188;fillColor=#FFFFFF;gradientColor=none;shape=stencil(UzV2Ls5ILEhVNTIoLinKz04tz0wpyVA1dlE1MsrMy0gtyiwBslSNXVWNndPyi1LTi/JL81Ig/IJEkEoQKze/DGRCBUSfAUiHkUElhGdoAOG7QZTmZOYhKYVJwhRbWupZmuBWjqoYj7l4nQBkIJyelpmTA/E5sjy6V4FCkGAydgUA);strokeColor=none;strokeWidth=0;spacingTop=-3;spacingBottom=-3;spacingLeft=-3;spacingRight=-3;points=[];labelBackgroundColor=none;rounded=0;html=1;whiteSpace=wrap;" parent="122" vertex="1">
          <mxGeometry x="55" y="9" width="16" height="15" as="geometry" />
        </mxCell>
        <mxCell id="127" style="vsdxID=189;fillColor=none;gradientColor=none;shape=stencil(pZHNDsIgEISfhitZFkzDudb3aFIqRISG4t/bCxJjW22i8Ta7fLMhM4TXo24HRRDGGPxBXUwXNeFbgmicVsHEpAhvCK97H9Q++JPryjy0mczq6M/5wrX4GED2INzKjIwyfGx2BbfGTfBKULGZGWAdnl8GCvxb9vmrj6iUVFb/4CgoinXDWyQ/4ssEk3il3xtrS3nT92VbaVWa5s0d);strokeColor=#000000;spacingTop=-3;spacingBottom=-3;spacingLeft=-3;spacingRight=-3;points=[];labelBackgroundColor=none;rounded=0;html=1;whiteSpace=wrap;" parent="122" vertex="1">
          <mxGeometry x="5" y="8" width="68" height="80" as="geometry" />
        </mxCell>
        <mxCell id="128" style="vsdxID=190;fillColor=#ffffff;gradientColor=#a4a4a4;shape=stencil(nZBLDoAgDERP0z3SIyjew0SURgSD+Lu9kMZoXLhwN9O+tukAlrNpJg1SzDH4QW/URgNYgZTkjA4UkwJUgGXng+6DX1zLfmoymdXo17xh5zmRJ6Q42BWCfc2oJfdAr+Yv+AP9Cb7OJ3H/2JG1HNGz/84klThPVCc=);strokeColor=none;strokeWidth=0;spacingTop=-3;spacingBottom=-3;spacingLeft=-3;spacingRight=-3;points=[];labelBackgroundColor=none;rounded=0;html=1;whiteSpace=wrap;" parent="122" vertex="1">
          <mxGeometry x="11" y="27" width="31" as="geometry" />
        </mxCell>
        <mxCell id="129" style="vsdxID=191;fillColor=#ffffff;gradientColor=#a4a4a4;shape=stencil(nZBLDoAgDERP0z3SIyjew0SURgSD+Lu9kMZoXLhwN9O+tukAlrNpJg1SzDH4QW/URgNYgZTkjA4UkwJUgGXng+6DX1zLfmoymdXo17xh5zmRJ6Q42BWCfc2oJfdAr+Yv+AP9Cb7OJ3H/2JG1HNGz/84klThPVCc=);strokeColor=none;strokeWidth=0;spacingTop=-3;spacingBottom=-3;spacingLeft=-3;spacingRight=-3;points=[];labelBackgroundColor=none;rounded=0;html=1;whiteSpace=wrap;" parent="122" vertex="1">
          <mxGeometry x="11" y="35" width="51" as="geometry" />
        </mxCell>
        <mxCell id="130" style="vsdxID=192;fillColor=#ffffff;gradientColor=#a4a4a4;shape=stencil(nZBLDoAgDERP0z3SIyjew0SURgSD+Lu9kMZoXLhwN9O+tukAlrNpJg1SzDH4QW/URgNYgZTkjA4UkwJUgGXng+6DX1zLfmoymdXo17xh5zmRJ6Q42BWCfc2oJfdAr+Yv+AP9Cb7OJ3H/2JG1HNGz/84klThPVCc=);strokeColor=none;strokeWidth=0;spacingTop=-3;spacingBottom=-3;spacingLeft=-3;spacingRight=-3;points=[];labelBackgroundColor=none;rounded=0;html=1;whiteSpace=wrap;" parent="122" vertex="1">
          <mxGeometry x="11" y="43" width="51" as="geometry" />
        </mxCell>
        <mxCell id="131" style="vsdxID=193;fillColor=#ffffff;gradientColor=#a4a4a4;shape=stencil(nZBLDoAgDERP0z3SIyjew0SURgSD+Lu9kMZoXLhwN9O+tukAlrNpJg1SzDH4QW/URgNYgZTkjA4UkwJUgGXng+6DX1zLfmoymdXo17xh5zmRJ6Q42BWCfc2oJfdAr+Yv+AP9Cb7OJ3H/2JG1HNGz/84klThPVCc=);strokeColor=none;strokeWidth=0;spacingTop=-3;spacingBottom=-3;spacingLeft=-3;spacingRight=-3;points=[];labelBackgroundColor=none;rounded=0;html=1;whiteSpace=wrap;" parent="122" vertex="1">
          <mxGeometry x="11" y="51" width="51" as="geometry" />
        </mxCell>
        <mxCell id="132" style="vsdxID=194;fillColor=#ffffff;gradientColor=#a4a4a4;shape=stencil(nZBLDoAgDERP0z3SIyjew0SURgSD+Lu9kMZoXLhwN9O+tukAlrNpJg1SzDH4QW/URgNYgZTkjA4UkwJUgGXng+6DX1zLfmoymdXo17xh5zmRJ6Q42BWCfc2oJfdAr+Yv+AP9Cb7OJ3H/2JG1HNGz/84klThPVCc=);strokeColor=none;strokeWidth=0;spacingTop=-3;spacingBottom=-3;spacingLeft=-3;spacingRight=-3;points=[];labelBackgroundColor=none;rounded=0;html=1;whiteSpace=wrap;" parent="122" vertex="1">
          <mxGeometry x="11" y="59" width="51" as="geometry" />
        </mxCell>
        <mxCell id="133" style="vsdxID=195;fillColor=#ffffff;gradientColor=#a4a4a4;shape=stencil(nZBLDoAgDERP0z3SIyjew0SURgSD+Lu9kMZoXLhwN9O+tukAlrNpJg1SzDH4QW/URgNYgZTkjA4UkwJUgGXng+6DX1zLfmoymdXo17xh5zmRJ6Q42BWCfc2oJfdAr+Yv+AP9Cb7OJ3H/2JG1HNGz/84klThPVCc=);strokeColor=none;strokeWidth=0;spacingTop=-3;spacingBottom=-3;spacingLeft=-3;spacingRight=-3;points=[];labelBackgroundColor=none;rounded=0;html=1;whiteSpace=wrap;" parent="122" vertex="1">
          <mxGeometry x="11" y="67" width="51" as="geometry" />
        </mxCell>
        <mxCell id="134" style="vsdxID=196;fillColor=#ffffff;gradientColor=#a4a4a4;shape=stencil(nZBLDoAgDERP0z3SIyjew0SURgSD+Lu9kMZoXLhwN9O+tukAlrNpJg1SzDH4QW/URgNYgZTkjA4UkwJUgGXng+6DX1zLfmoymdXo17xh5zmRJ6Q42BWCfc2oJfdAr+Yv+AP9Cb7OJ3H/2JG1HNGz/84klThPVCc=);strokeColor=none;strokeWidth=0;spacingTop=-3;spacingBottom=-3;spacingLeft=-3;spacingRight=-3;points=[];labelBackgroundColor=none;rounded=0;html=1;whiteSpace=wrap;" parent="122" vertex="1">
          <mxGeometry x="11" y="75" width="51" as="geometry" />
        </mxCell>
        <mxCell id="135" value="&lt;div style=&quot;font-size: 1px&quot;&gt;&lt;/div&gt;" style="text;vsdxID=184;fillColor=none;gradientColor=none;strokeColor=none;points=[];labelBackgroundColor=none;rounded=0;html=1;whiteSpace=wrap;verticalAlign=middle;align=left;overflow=width;;html=1;" parent="122" vertex="1">
          <mxGeometry x="126.36" y="36.4" width="11.29" height="31.61" as="geometry" />
        </mxCell>
        <mxCell id="136" value="&lt;div style=&quot;font-size: 1px&quot;&gt;&lt;font style=&quot;font-size:25.4px;font-family:Calibri;color:#000000;direction:ltr;letter-spacing:0px;line-height:120%;opacity:1&quot;&gt;&lt;b&gt;.i&lt;br/&gt;&lt;/b&gt;&lt;/font&gt;&lt;/div&gt;" style="verticalAlign=middle;align=center;overflow=width;vsdxID=197;fillColor=none;gradientColor=none;shape=stencil(nZBLDoAgDERP0z3SIyjew0SURgSD+Lu9kMZoXLhwN9O+tukAlrNpJg1SzDH4QW/URgNYgZTkjA4UkwJUgGXng+6DX1zLfmoymdXo17xh5zmRJ6Q42BWCfc2oJfdAr+Yv+AP9Cb7OJ3H/2JG1HNGz/84klThPVCc=);strokeColor=none;strokeWidth=2;points=[];labelBackgroundColor=none;rounded=0;html=1;whiteSpace=wrap;" parent="121" vertex="1">
          <mxGeometry x="14" y="34" width="48" height="28" as="geometry" />
        </mxCell>
        <UserObject label="" tags="Background" id="137">
          <mxCell style="vsdxID=203;fillColor=none;gradientColor=none;strokeColor=none;strokeWidth=2;points=[];labelBackgroundColor=none;rounded=0;html=1;whiteSpace=wrap;" parent="1" vertex="1">
            <mxGeometry x="170" y="229" width="102" height="112" as="geometry" />
          </mxCell>
        </UserObject>
        <mxCell id="138" style="vsdxID=198;fillColor=#ffffff;gradientColor=none;shape=stencil(tVJdDsIgDD4NjxhGNz3AnPcgrtuIE5YO3by9EEgcS3wyvrXfT38oDOp5UBMyKWZH9oaLbt3A4Myk1GZA0s5HDBoGdWcJe7IP08Z8UkEZort9hgpr9BVCBI8Urzy/RLGiq+coiWUJBzhGPSUDiEMpI5RUecFTlUiuVj1zsk45bU0mHRX1yH0v3o2qz6h5QZw2cLGdbtQGv/WV1a977J9G/G8RH3wOFG+75fbH9FD8CNC8AQ==);strokeColor=#000000;points=[[0,0.18,0],[0,0.5,0],[0,0.82,0]];labelBackgroundColor=none;rounded=0;html=1;whiteSpace=wrap;" parent="137" vertex="1">
          <mxGeometry width="15" height="112" as="geometry" />
        </mxCell>
        <mxCell id="139" style="vsdxID=199;fillColor=#ffffff;gradientColor=none;shape=stencil(tVJdDsIgDD4NjxhGNz3AnPcgrtuIE5YO3by9EEgcS3wyvrXfT38oDOp5UBMyKWZH9oaLbt3A4Myk1GZA0s5HDBoGdWcJe7IP08Z8UkEZort9hgpr9BVCBI8Urzy/RLGiq+coiWUJBzhGPSUDiEMpI5RUecFTlUiuVj1zsk45bU0mHRX1yH0v3o2qz6h5QZw2cLGdbtQGv/WV1a977J9G/G8RH3wOFG+75fbH9FD8CNC8AQ==);strokeColor=#000000;flipH=1;points=[[0,0.18,0],[0,0.5,0],[0,0.82,0]];labelBackgroundColor=none;rounded=0;html=1;whiteSpace=wrap;" parent="137" vertex="1">
          <mxGeometry x="87" width="15" height="112" as="geometry" />
        </mxCell>
        <UserObject label="" tags="Background" id="140">
          <mxCell style="vsdxID=221;fillColor=none;gradientColor=none;strokeColor=none;strokeWidth=2;points=[];labelBackgroundColor=none;rounded=0;html=1;whiteSpace=wrap;" parent="1" vertex="1">
            <mxGeometry x="170" y="349" width="102" height="112" as="geometry" />
          </mxCell>
        </UserObject>
        <mxCell id="141" style="vsdxID=222;fillColor=#ffffff;gradientColor=none;shape=stencil(tVJdDsIgDD4NjxhGNz3AnPcgrtuIE5YO3by9EEgcS3wyvrXfT38oDOp5UBMyKWZH9oaLbt3A4Myk1GZA0s5HDBoGdWcJe7IP08Z8UkEZort9hgpr9BVCBI8Urzy/RLGiq+coiWUJBzhGPSUDiEMpI5RUecFTlUiuVj1zsk45bU0mHRX1yH0v3o2qz6h5QZw2cLGdbtQGv/WV1a977J9G/G8RH3wOFG+75fbH9FD8CNC8AQ==);strokeColor=#000000;points=[[0,0.18,0],[0,0.5,0],[0,0.82,0]];labelBackgroundColor=none;rounded=0;html=1;whiteSpace=wrap;" parent="140" vertex="1">
          <mxGeometry width="15" height="112" as="geometry" />
        </mxCell>
        <mxCell id="142" style="vsdxID=223;fillColor=#ffffff;gradientColor=none;shape=stencil(tVJdDsIgDD4NjxhGNz3AnPcgrtuIE5YO3by9EEgcS3wyvrXfT38oDOp5UBMyKWZH9oaLbt3A4Myk1GZA0s5HDBoGdWcJe7IP08Z8UkEZort9hgpr9BVCBI8Urzy/RLGiq+coiWUJBzhGPSUDiEMpI5RUecFTlUiuVj1zsk45bU0mHRX1yH0v3o2qz6h5QZw2cLGdbtQGv/WV1a977J9G/G8RH3wOFG+75fbH9FD8CNC8AQ==);strokeColor=#000000;flipH=1;points=[[0,0.18,0],[0,0.5,0],[0,0.82,0]];labelBackgroundColor=none;rounded=0;html=1;whiteSpace=wrap;" parent="140" vertex="1">
          <mxGeometry x="87" width="15" height="112" as="geometry" />
        </mxCell>
        <UserObject label="" tags="Background" id="143">
          <mxCell style="vsdxID=224;fillColor=none;gradientColor=none;strokeColor=none;strokeWidth=2;points=[];labelBackgroundColor=none;rounded=0;html=1;whiteSpace=wrap;" parent="1" vertex="1">
            <mxGeometry x="170" y="469" width="102" height="112" as="geometry" />
          </mxCell>
        </UserObject>
        <mxCell id="144" style="vsdxID=225;fillColor=#ffffff;gradientColor=none;shape=stencil(tVJdDsIgDD4NjxhGNz3AnPcgrtuIE5YO3by9EEgcS3wyvrXfT38oDOp5UBMyKWZH9oaLbt3A4Myk1GZA0s5HDBoGdWcJe7IP08Z8UkEZort9hgpr9BVCBI8Urzy/RLGiq+coiWUJBzhGPSUDiEMpI5RUecFTlUiuVj1zsk45bU0mHRX1yH0v3o2qz6h5QZw2cLGdbtQGv/WV1a977J9G/G8RH3wOFG+75fbH9FD8CNC8AQ==);strokeColor=#000000;points=[[0,0.18,0],[0,0.5,0],[0,0.82,0]];labelBackgroundColor=none;rounded=0;html=1;whiteSpace=wrap;" parent="143" vertex="1">
          <mxGeometry width="15" height="112" as="geometry" />
        </mxCell>
        <mxCell id="145" style="vsdxID=226;fillColor=#ffffff;gradientColor=none;shape=stencil(tVJdDsIgDD4NjxhGNz3AnPcgrtuIE5YO3by9EEgcS3wyvrXfT38oDOp5UBMyKWZH9oaLbt3A4Myk1GZA0s5HDBoGdWcJe7IP08Z8UkEZort9hgpr9BVCBI8Urzy/RLGiq+coiWUJBzhGPSUDiEMpI5RUecFTlUiuVj1zsk45bU0mHRX1yH0v3o2qz6h5QZw2cLGdbtQGv/WV1a977J9G/G8RH3wOFG+75fbH9FD8CNC8AQ==);strokeColor=#000000;flipH=1;points=[[0,0.18,0],[0,0.5,0],[0,0.82,0]];labelBackgroundColor=none;rounded=0;html=1;whiteSpace=wrap;" parent="143" vertex="1">
          <mxGeometry x="87" width="15" height="112" as="geometry" />
        </mxCell>
        <UserObject label="&lt;div style=&quot;font-size: 1px&quot;&gt;&lt;p style=&quot;text-align:left;margin-left:0;margin-right:0;margin-top:0px;margin-bottom:0px;text-indent:0;vertical-align:middle;direction:ltr;&quot;&gt;&lt;font style=&quot;font-size:16.93px;font-family:Calibri;color:#000000;direction:ltr;letter-spacing:0px;line-height:120%;opacity:1&quot;&gt;&lt;i&gt;gcc -E foo.c &amp;gt; foo.i&lt;br/&gt;&lt;/i&gt;&lt;/font&gt;&lt;/p&gt;&lt;/div&gt;" tags="Background" id="146">
          <mxCell style="verticalAlign=middle;align=left;overflow=width;vsdxID=227;fillColor=none;gradientColor=none;shape=stencil(nZBLDoAgDERP0z3SIyjew0SURgSD+Lu9kMZoXLhwN9O+tukAlrNpJg1SzDH4QW/URgNYgZTkjA4UkwJUgGXng+6DX1zLfmoymdXo17xh5zmRJ6Q42BWCfc2oJfdAr+Yv+AP9Cb7OJ3H/2JG1HNGz/84klThPVCc=);strokeColor=none;strokeWidth=2;points=[];labelBackgroundColor=none;rounded=0;html=1;whiteSpace=wrap;" parent="1" vertex="1">
            <mxGeometry x="887" y="245" width="160" height="28" as="geometry" />
          </mxCell>
        </UserObject>
        <UserObject label="&lt;div style=&quot;font-size: 1px&quot;&gt;&lt;p style=&quot;text-align:left;margin-left:0;margin-right:0;margin-top:0px;margin-bottom:0px;text-indent:0;vertical-align:middle;direction:ltr;&quot;&gt;&lt;font style=&quot;font-size:16.93px;font-family:Calibri;color:#000000;direction:ltr;letter-spacing:0px;line-height:120%;opacity:1&quot;&gt;&lt;i&gt;gcc -s foo.c -ofoo.s&lt;br/&gt;&lt;/i&gt;&lt;/font&gt;&lt;/p&gt;&lt;/div&gt;" tags="Background" id="147">
          <mxCell style="verticalAlign=middle;align=left;overflow=width;vsdxID=229;fillColor=none;gradientColor=none;shape=stencil(nZBLDoAgDERP0z3SIyjew0SURgSD+Lu9kMZoXLhwN9O+tukAlrNpJg1SzDH4QW/URgNYgZTkjA4UkwJUgGXng+6DX1zLfmoymdXo17xh5zmRJ6Q42BWCfc2oJfdAr+Yv+AP9Cb7OJ3H/2JG1HNGz/84klThPVCc=);strokeColor=none;strokeWidth=2;points=[];labelBackgroundColor=none;rounded=0;html=1;whiteSpace=wrap;" parent="1" vertex="1">
            <mxGeometry x="887" y="360" width="160" height="28" as="geometry" />
          </mxCell>
        </UserObject>
        <UserObject label="&lt;div style=&quot;font-size: 1px&quot;&gt;&lt;p style=&quot;text-align:left;margin-left:0;margin-right:0;margin-top:0px;margin-bottom:0px;text-indent:0;vertical-align:middle;direction:ltr;&quot;&gt;&lt;font style=&quot;font-size:16.93px;font-family:Calibri;color:#000000;direction:ltr;letter-spacing:0px;line-height:120%;opacity:1&quot;&gt;&lt;i&gt;gcc -c foo.c -ofoo.o&lt;br/&gt;&lt;/i&gt;&lt;/font&gt;&lt;/p&gt;&lt;/div&gt;" tags="Background" id="148">
          <mxCell style="verticalAlign=middle;align=left;overflow=width;vsdxID=230;fillColor=none;gradientColor=none;shape=stencil(nZBLDoAgDERP0z3SIyjew0SURgSD+Lu9kMZoXLhwN9O+tukAlrNpJg1SzDH4QW/URgNYgZTkjA4UkwJUgGXng+6DX1zLfmoymdXo17xh5zmRJ6Q42BWCfc2oJfdAr+Yv+AP9Cb7OJ3H/2JG1HNGz/84klThPVCc=);strokeColor=none;strokeWidth=2;points=[];labelBackgroundColor=none;rounded=0;html=1;whiteSpace=wrap;" parent="1" vertex="1">
            <mxGeometry x="888" y="479" width="160" height="28" as="geometry" />
          </mxCell>
        </UserObject>
        <UserObject label="&lt;div style=&quot;font-size: 1px&quot;&gt;&lt;p style=&quot;text-align:left;margin-left:0;margin-right:0;margin-top:0px;margin-bottom:0px;text-indent:0;vertical-align:middle;direction:ltr;&quot;&gt;&lt;font style=&quot;font-size:16.93px;font-family:Calibri;color:#000000;direction:ltr;letter-spacing:0px;line-height:120%;opacity:1&quot;&gt;&lt;i&gt;gcc foo.o -oa.out&lt;br/&gt;&lt;/i&gt;&lt;/font&gt;&lt;/p&gt;&lt;/div&gt;" tags="Background" id="149">
          <mxCell style="verticalAlign=middle;align=left;overflow=width;vsdxID=231;fillColor=none;gradientColor=none;shape=stencil(nZBLDoAgDERP0z3SIyjew0SURgSD+Lu9kMZoXLhwN9O+tukAlrNpJg1SzDH4QW/URgNYgZTkjA4UkwJUgGXng+6DX1zLfmoymdXo17xh5zmRJ6Q42BWCfc2oJfdAr+Yv+AP9Cb7OJ3H/2JG1HNGz/84klThPVCc=);strokeColor=none;strokeWidth=2;points=[];labelBackgroundColor=none;rounded=0;html=1;whiteSpace=wrap;" parent="1" vertex="1">
            <mxGeometry x="890" y="608" width="160" height="28" as="geometry" />
          </mxCell>
        </UserObject>
        <UserObject label="" tags="Background" id="170">
          <mxCell style="vsdxID=232;edgeStyle=none;dashed=1;dashPattern=2.00 2.00;startArrow=none;endArrow=none;startSize=5;endSize=5;strokeWidth=2;strokeColor=#000000;spacingTop=0;spacingBottom=0;spacingLeft=0;spacingRight=0;verticalAlign=middle;html=1;labelBackgroundColor=#ffffff;rounded=0;" parent="1" edge="1">
            <mxGeometry relative="1" as="geometry">
              <mxPoint as="offset" />
              <Array as="points" />
              <mxPoint x="546" y="623" as="sourcePoint" />
              <mxPoint x="875" y="623" as="targetPoint" />
            </mxGeometry>
          </mxCell>
        </UserObject>
        <UserObject label="" tags="Connector" id="150">
          <mxCell style="vsdxID=200;edgeStyle=none;startArrow=none;endArrow=block;startSize=5;endSize=5;strokeColor=#000000;spacingTop=0;spacingBottom=0;spacingLeft=0;spacingRight=0;verticalAlign=middle;html=1;labelBackgroundColor=#ffffff;rounded=0;exitX=1;exitY=0.5125;exitDx=0;exitDy=0;exitPerimeter=0;entryX=0;entryY=0.5;entryDx=0;entryDy=0;entryPerimeter=0;" parent="1" source="123" target="4" edge="1">
            <mxGeometry relative="1" as="geometry">
              <mxPoint as="offset" />
              <Array as="points" />
            </mxGeometry>
          </mxCell>
        </UserObject>
        <UserObject label="" tags="Connector" id="151">
          <mxCell style="vsdxID=177;edgeStyle=none;startArrow=none;endArrow=block;startSize=5;endSize=5;strokeColor=#000000;spacingTop=0;spacingBottom=0;spacingLeft=0;spacingRight=0;verticalAlign=middle;html=1;labelBackgroundColor=#ffffff;rounded=0;exitX=1;exitY=0.5125;exitDx=0;exitDy=0;exitPerimeter=0;entryX=0;entryY=0.5;entryDx=0;entryDy=0;entryPerimeter=0;" parent="1" source="107" target="5" edge="1">
            <mxGeometry relative="1" as="geometry">
              <mxPoint x="-1" as="offset" />
              <Array as="points" />
            </mxGeometry>
          </mxCell>
        </UserObject>
        <UserObject label="" tags="Connector" id="152">
          <mxCell style="vsdxID=161;edgeStyle=none;startArrow=none;endArrow=block;startSize=5;endSize=5;strokeColor=#000000;spacingTop=0;spacingBottom=0;spacingLeft=0;spacingRight=0;verticalAlign=middle;html=1;labelBackgroundColor=#ffffff;rounded=0;exitX=1;exitY=0.5125;exitDx=0;exitDy=0;exitPerimeter=0;entryX=0;entryY=0.5;entryDx=0;entryDy=0;entryPerimeter=0;" parent="1" source="91" target="6" edge="1">
            <mxGeometry relative="1" as="geometry">
              <mxPoint as="offset" />
              <Array as="points" />
            </mxGeometry>
          </mxCell>
        </UserObject>
        <UserObject label="" tags="Connector" id="153">
          <mxCell style="vsdxID=110;edgeStyle=none;startArrow=none;endArrow=block;startSize=5;endSize=5;strokeColor=#000000;spacingTop=0;spacingBottom=0;spacingLeft=0;spacingRight=0;verticalAlign=middle;html=1;labelBackgroundColor=#ffffff;rounded=0;exitX=0.5;exitY=1;exitDx=0;exitDy=0;exitPerimeter=0;entryX=0.5;entryY=0.09278350515463918;entryDx=0;entryDy=0;entryPerimeter=0;" parent="1" source="6" target="73" edge="1">
            <mxGeometry relative="1" as="geometry">
              <mxPoint x="10" y="-1" as="offset" />
              <Array as="points" />
            </mxGeometry>
          </mxCell>
        </UserObject>
        <UserObject label="" tags="Connector" id="154">
          <mxCell style="vsdxID=95;edgeStyle=none;startArrow=none;endArrow=block;startSize=5;endSize=5;strokeColor=#000000;spacingTop=0;spacingBottom=0;spacingLeft=0;spacingRight=0;verticalAlign=middle;html=1;labelBackgroundColor=#ffffff;rounded=0;exitX=0.5;exitY=1;exitDx=0;exitDy=0;exitPerimeter=0;entryX=0;entryY=0.5875;entryDx=0;entryDy=0;entryPerimeter=0;" parent="1" source="5" target="42" edge="1">
            <mxGeometry relative="1" as="geometry">
              <mxPoint x="-1" as="offset" />
              <Array as="points">
                <mxPoint x="489" y="440.2" />
              </Array>
            </mxGeometry>
          </mxCell>
        </UserObject>
        <UserObject label="" tags="Connector" id="155">
          <mxCell style="vsdxID=80;edgeStyle=none;startArrow=none;endArrow=block;startSize=5;endSize=5;strokeColor=#000000;spacingTop=0;spacingBottom=0;spacingLeft=0;spacingRight=0;verticalAlign=middle;html=1;labelBackgroundColor=#ffffff;rounded=0;exitX=0.5;exitY=1;exitDx=0;exitDy=0;exitPerimeter=0;entryX=0.0641025641025641;entryY=0.5360824742268041;entryDx=0;entryDy=0;entryPerimeter=0;" parent="1" source="4" target="24" edge="1">
            <mxGeometry relative="1" as="geometry">
              <mxPoint as="offset" />
              <Array as="points">
                <mxPoint x="489" y="324.2" />
              </Array>
            </mxGeometry>
          </mxCell>
        </UserObject>
        <UserObject label="" tags="Connector" id="156">
          <mxCell style="vsdxID=65;edgeStyle=none;startArrow=none;endArrow=block;startSize=5;endSize=5;strokeColor=#000000;spacingTop=0;spacingBottom=0;spacingLeft=0;spacingRight=0;verticalAlign=middle;html=1;labelBackgroundColor=#ffffff;rounded=0;exitX=0.5;exitY=1;exitDx=0;exitDy=0;exitPerimeter=0;entryX=0.0641025641025641;entryY=0.5463917525773195;entryDx=0;entryDy=0;entryPerimeter=0;" parent="1" source="3" target="56" edge="1">
            <mxGeometry relative="1" as="geometry">
              <mxPoint x="-1" as="offset" />
              <Array as="points">
                <mxPoint x="489" y="213" />
              </Array>
            </mxGeometry>
          </mxCell>
        </UserObject>
        <UserObject label="" tags="Connector" id="157">
          <mxCell style="vsdxID=61;edgeStyle=none;startArrow=none;endArrow=block;startSize=5;endSize=5;strokeColor=#000000;spacingTop=0;spacingBottom=0;spacingLeft=0;spacingRight=0;verticalAlign=middle;html=1;labelBackgroundColor=#ffffff;rounded=0;exitX=0.5;exitY=0.9175257731958762;exitDx=0;exitDy=0;exitPerimeter=0;entryX=0.5;entryY=0;entryDx=0;entryDy=0;entryPerimeter=0;" parent="1" source="7" target="3" edge="1">
            <mxGeometry relative="1" as="geometry">
              <mxPoint x="10" y="-1" as="offset" />
              <Array as="points" />
            </mxGeometry>
          </mxCell>
        </UserObject>
        <UserObject label="" tags="Connector" id="158">
          <mxCell style="vsdxID=62;edgeStyle=none;startArrow=none;endArrow=block;startSize=5;endSize=5;strokeColor=#000000;spacingTop=0;spacingBottom=0;spacingLeft=0;spacingRight=0;verticalAlign=middle;html=1;labelBackgroundColor=#ffffff;rounded=0;exitX=0.5;exitY=1;exitDx=0;exitDy=0;exitPerimeter=0;entryX=0.5;entryY=0;entryDx=0;entryDy=0;entryPerimeter=0;" parent="1" source="3" target="4" edge="1">
            <mxGeometry relative="1" as="geometry">
              <mxPoint x="10" as="offset" />
              <Array as="points" />
            </mxGeometry>
          </mxCell>
        </UserObject>
        <UserObject label="" tags="Connector" id="159">
          <mxCell style="vsdxID=63;edgeStyle=none;startArrow=none;endArrow=block;startSize=5;endSize=5;strokeColor=#000000;spacingTop=0;spacingBottom=0;spacingLeft=0;spacingRight=0;verticalAlign=middle;html=1;labelBackgroundColor=#ffffff;rounded=0;exitX=0.5;exitY=1;exitDx=0;exitDy=0;exitPerimeter=0;entryX=0.5;entryY=0;entryDx=0;entryDy=0;entryPerimeter=0;" parent="1" source="4" target="5" edge="1">
            <mxGeometry relative="1" as="geometry">
              <mxPoint x="10" y="-1" as="offset" />
              <Array as="points" />
            </mxGeometry>
          </mxCell>
        </UserObject>
        <UserObject label="" tags="Connector" id="160">
          <mxCell style="vsdxID=64;edgeStyle=none;startArrow=none;endArrow=block;startSize=5;endSize=5;strokeColor=#000000;spacingTop=0;spacingBottom=0;spacingLeft=0;spacingRight=0;verticalAlign=middle;html=1;labelBackgroundColor=#ffffff;rounded=0;exitX=0.5;exitY=1;exitDx=0;exitDy=0;exitPerimeter=0;entryX=0.5;entryY=0;entryDx=0;entryDy=0;entryPerimeter=0;" parent="1" source="5" target="6" edge="1">
            <mxGeometry relative="1" as="geometry">
              <mxPoint x="-10" y="-1" as="offset" />
              <Array as="points" />
            </mxGeometry>
          </mxCell>
        </UserObject>
        <UserObject label="" tags="Flowchart Connector" id="171">
          <mxCell parent="1" vertex="1" visible="0">
            <mxGeometry as="geometry" />
          </mxCell>
        </UserObject>
      </root>
    </mxGraphModel>
  </diagram>
</mxfile>
